<svg width="292" height="300" viewBox="0 0 292 300" fill="none" xmlns="http://www.w3.org/2000/svg">
<g clip-path="url(#clip0_1_856)">
<path d="M41.7151 95.832C41.7151 75.12 58.5262 58.332 79.2606 58.332H292.006V274.998C292.006 288.804 280.801 300 266.976 300H91.7697C64.1259 300 41.7151 277.614 41.7151 250.002V95.832Z" fill="url(#paint0_radial_1_856)"/>
<path d="M41.7151 95.832C41.7151 75.12 58.5262 58.332 79.2606 58.332H292.006V274.998C292.006 288.804 280.801 300 266.976 300H91.7697C64.1259 300 41.7151 277.614 41.7151 250.002V95.832Z" fill="url(#paint1_radial_1_856)" fill-opacity="0.7"/>
<path d="M41.7151 137.502C41.7151 116.79 58.5262 100.002 79.2606 100.002H191.891C178.066 100.002 166.861 111.198 166.861 125.004V175.002C166.861 188.808 155.655 200.004 141.83 200.004H91.7757C64.1319 200.004 41.7212 222.39 41.7212 250.002V137.502H41.7151Z" fill="url(#paint2_linear_1_856)"/>
<path d="M41.7151 137.502C41.7151 116.79 58.5262 100.002 79.2606 100.002H191.891C178.066 100.002 166.861 111.198 166.861 125.004V175.002C166.861 188.808 155.655 200.004 141.83 200.004H91.7757C64.1319 200.004 41.7212 222.39 41.7212 250.002V137.502H41.7151Z" fill="url(#paint3_linear_1_856)" fill-opacity="0.3"/>
<path d="M41.7151 49.998C41.7151 22.386 64.1259 0 91.7697 0H191.885V100.002H91.7697C64.1259 100.002 41.7151 122.388 41.7151 150V49.998Z" fill="url(#paint4_linear_1_856)"/>
<path d="M41.7151 49.998C41.7151 22.386 64.1259 0 91.7697 0H191.885V100.002H91.7697C64.1259 100.002 41.7151 122.388 41.7151 150V49.998Z" fill="url(#paint5_radial_1_856)"/>
<path d="M41.7151 49.998C41.7151 22.386 64.1259 0 91.7697 0H191.885V100.002H91.7697C64.1259 100.002 41.7151 122.388 41.7151 150V49.998Z" fill="url(#paint6_linear_1_856)"/>
<path d="M266.97 0H191.885C178.061 0 166.855 11.1911 166.855 24.996V75.006C166.855 88.8109 178.061 100.002 191.885 100.002H266.97C280.794 100.002 292 88.8109 292 75.006V24.996C292 11.1911 280.794 0 266.97 0Z" fill="url(#paint7_radial_1_856)"/>
<path d="M106.37 141.666H27.1151C12.1399 141.666 0 153.789 0 168.744V247.92C0 262.875 12.1399 274.998 27.1151 274.998H106.37C121.345 274.998 133.485 262.875 133.485 247.92V168.744C133.485 153.789 121.345 141.666 106.37 141.666Z" fill="url(#paint8_radial_1_856)"/>
<path d="M106.37 141.666H27.1151C12.1399 141.666 0 153.789 0 168.744V247.92C0 262.875 12.1399 274.998 27.1151 274.998H106.37C121.345 274.998 133.485 262.875 133.485 247.92V168.744C133.485 153.789 121.345 141.666 106.37 141.666Z" fill="url(#paint9_radial_1_856)" fill-opacity="0.3"/>
<path d="M101.827 246.426H81.2493L68.3316 222.144C67.869 221.292 67.5145 220.62 67.2682 220.122C67.0579 219.594 66.8235 218.988 66.5772 218.316H66.3669C66.0485 219.168 65.7481 219.858 65.4657 220.386C65.1833 220.92 64.8468 221.574 64.4563 222.354L51.058 246.42H31.6514L54.9393 208.272L33.2496 170.232H53.5574L65.0391 191.91C65.5017 192.798 65.8923 193.578 66.2107 194.25C66.5652 194.886 66.9197 195.648 67.2742 196.536H67.4845C67.9771 195.51 68.3677 194.694 68.6561 194.094C68.9745 193.494 69.4011 192.696 69.9298 191.706L81.8381 170.244H101.191L79.1825 207.702L101.834 246.432L101.827 246.426Z" fill="white"/>
</g>
<defs>
<radialGradient id="paint0_radial_1_856" cx="0" cy="0" r="1" gradientTransform="matrix(-236.392 -248.417 -192.981 183.137 290.418 316.638)" gradientUnits="userSpaceOnUse">
<stop offset="0.06" stop-color="#379539"/>
<stop offset="0.42" stop-color="#297C2D"/>
<stop offset="0.7" stop-color="#15561C"/>
</radialGradient>
<radialGradient id="paint1_radial_1_856" cx="0" cy="0" r="1" gradientTransform="matrix(-99.9459 -96.5192 -74.7802 77.2231 116.451 145.291)" gradientUnits="userSpaceOnUse">
<stop stop-color="#073B10"/>
<stop offset="0.99" stop-color="#084A13" stop-opacity="0"/>
</radialGradient>
<linearGradient id="paint2_linear_1_856" x1="41.7151" y1="175.002" x2="156.719" y2="175.002" gradientUnits="userSpaceOnUse">
<stop stop-color="#52D17C"/>
<stop offset="0.33" stop-color="#4AA647"/>
</linearGradient>
<linearGradient id="paint3_linear_1_856" x1="116.8" y1="100.002" x2="116.8" y2="204.192" gradientUnits="userSpaceOnUse">
<stop stop-color="#29852F"/>
<stop offset="0.5" stop-color="#4AA647" stop-opacity="0"/>
</linearGradient>
<linearGradient id="paint4_linear_1_856" x1="48.3602" y1="122.868" x2="186.963" y2="2.48792" gradientUnits="userSpaceOnUse">
<stop stop-color="#66D052"/>
<stop offset="1" stop-color="#85E972"/>
</linearGradient>
<radialGradient id="paint5_radial_1_856" cx="0" cy="0" r="1" gradientUnits="userSpaceOnUse" gradientTransform="translate(188.101 61.8655) rotate(-180) scale(75.2758 159.096)">
<stop offset="0.29" stop-color="#4EB43B"/>
<stop offset="1" stop-color="#72CC61" stop-opacity="0"/>
</radialGradient>
<linearGradient id="paint6_linear_1_856" x1="109.416" y1="75" x2="41.7151" y2="75" gradientUnits="userSpaceOnUse">
<stop offset="0.18" stop-color="#C0E075" stop-opacity="0"/>
<stop offset="1" stop-color="#D1EB95"/>
</linearGradient>
<radialGradient id="paint7_radial_1_856" cx="0" cy="0" r="1" gradientTransform="matrix(-141.102 -114.024 113.866 -140.52 311.053 116.419)" gradientUnits="userSpaceOnUse">
<stop offset="0.44" stop-color="#79E96D"/>
<stop offset="1" stop-color="#D0EB76"/>
</radialGradient>
<radialGradient id="paint8_radial_1_856" cx="0" cy="0" r="1" gradientTransform="matrix(133.46 133.324 380.157 -379.504 9.24219 147.7)" gradientUnits="userSpaceOnUse">
<stop stop-color="#20A85E"/>
<stop offset="0.94" stop-color="#09442A"/>
</radialGradient>
<radialGradient id="paint9_radial_1_856" cx="0" cy="0" r="1" gradientUnits="userSpaceOnUse" gradientTransform="translate(68.2661 221.674) rotate(90) scale(93.3408 107.656)">
<stop offset="0.58" stop-color="#33A662" stop-opacity="0"/>
<stop offset="0.97" stop-color="#98F0B0"/>
</radialGradient>
<clipPath id="clip0_1_856">
<rect width="292" height="300" fill="white"/>
</clipPath>
</defs>
</svg>
