<?xml version="1.0" encoding="UTF-8"?>
<!-- Generator: Adobe Illustrator 23.0.2, SVG Export Plug-In . SVG Version: 6.00 Build 0)  -->
<svg version="1.1" id="Layer_1" xmlns="http://www.w3.org/2000/svg" xmlns:xlink="http://www.w3.org/1999/xlink" x="0px" y="0px" viewBox="0 0 360 240" style="enable-background:new 0 0 360 240;" xml:space="preserve">
<style type="text/css">
	.st0{fill:#FFFFFF;}
</style>
<path class="st0" d="M68.5,172.2c0-4.8,1.1-9.4,3.1-13.9s5.2-8.2,9.4-11.2c1.5-1.1,3.1-1.9,4.7-2.5s3.4-1.2,5.2-1.5  c1.9-0.3,3.8-0.5,5.9-0.5c9,0,16,3,20.9,9c2.4,3,4.3,6.1,5.5,9.6c1.3,3.5,1.9,7.1,1.9,11c0,8-2.5,15-7.6,20.9s-12,8.9-20.7,8.9  c-8.4,0-15.3-2.8-20.5-8.4C71.2,188.1,68.5,181,68.5,172.2 M90.4,172.2c0,6.4,0.5,10.7,1.6,12.9s2.7,3.4,4.9,3.4  c2.2,0,3.8-1.1,4.9-3.3s1.6-6.6,1.6-13c0-6.3-0.5-10.6-1.6-12.8s-2.7-3.4-5-3.4c-2.1,0-3.8,1.1-4.9,3.3  C90.8,161.5,90.4,165.8,90.4,172.2"/>
<path class="st0" d="M159.4,201.1H132v-13.7h4.1v-29.9H132v-13.7h27.4c2.4,0,4.8,0,6.8,0.1s3.9,0.2,5.4,0.4c1.5,0.2,2.9,0.4,4.1,0.7  c3.5,0.8,6.4,2.8,8.6,5.5c2.2,2.9,3.3,6.4,3.3,10.3c0,3-0.6,5.6-2,8.1c-1.4,2.4-3.1,4.1-5.3,5.3l6.9,13.1h3.6V201h-18.1l-10.9-23.4  h-6.1v9.6h3.8v13.9H159.4z M155.6,156.3v10.9h2.1c2.9,0,4.8-0.1,5.8-0.3c1.1-0.2,2-0.7,2.8-1.7c0.7-0.8,1.2-2,1.2-3.5  s-0.4-2.7-1.2-3.5c-0.7-1-1.7-1.5-2.9-1.7c-1.1-0.2-3.2-0.3-6-0.3h-1.8L155.6,156.3L155.6,156.3z"/>
<polygon class="st0" points="230.1,162 230.1,157.5 218.8,157.5 218.8,166.3 228.7,166.3 228.7,177.9 218.8,177.9 218.8,187.4   230.1,187.4 230.1,182.7 243.4,182.7 243.4,201.1 195.5,201.1 195.5,187.4 199.3,187.4 199.3,157.5 195.4,157.5 195.4,143.7   208.8,143.7 212.5,149.2 228.7,143.7 243.4,143.7 243.4,162 "/>
<path class="st0" d="M268.3,201.1h-19.9v-13.7h3.8l9.4-29.9h-4v-13.7h36.2v13.7h-4l9.6,29.9h3.7v13.7h-26.2v-12.6h4.5l-1.9-7.2  h-12.8l-2.2,7.2h4.1L268.3,201.1L268.3,201.1z M273,158.2l-4.8,15.9h9L273,158.2z"/>
<polygon class="st0" points="354.2,201.1 306.4,201.1 306.4,187.3 310.9,187.3 310.9,157.5 306.4,157.5 306.4,143.7 335.1,143.7   335.1,157.5 330.3,157.5 330.3,187.3 342.2,187.3 342.2,178.2 354.2,178.2 "/>
<polygon class="st0" points="31.1,178.4 22.7,187.2 22.7,201 4.9,201 4.9,187.2 9.3,187.2 9.3,157.4 4.9,157.4 4.9,143.6   22.7,143.6 22.7,157.3 31.1,164.3 "/>
<path class="st0" d="M61.9,184.6c0,3.8-1.1,7.1-3.3,9.9c-2.2,2.7-5.2,4.5-8.9,5.2c-3.7,0.8-9.2,1.3-16.3,1.3h-3.9v-12l8-8.7v-18.1  l-8-6.7v-11.9h6.3c6,0,10.7,0.4,14,1.2c3.3,0.8,5.8,2.4,7.6,4.9s2.8,5.4,2.8,8.7c0,3.3-0.8,5.8-2.7,7.7c-1.8,2-4,3.4-6.6,4.1  c3.5,1.2,6.3,3.1,8.2,5.6C60.9,178.5,61.9,181.4,61.9,184.6"/>
<polygon class="st0" points="131.7,129.9 188,40 119.9,68.3 68.8,142.3 "/>
<polygon class="st0" points="190.7,45.3 174.5,72.6 198.1,118.9 238.1,134.5 218.4,97.3 218.4,47.8 204.1,47.8 204.1,72 "/>
</svg>