<?xml version="1.0" encoding="UTF-8"?>
<svg id="Layer_2" data-name="Layer 2" xmlns="http://www.w3.org/2000/svg" viewBox="0 0 310.11 133.95">
  <defs>
    <style>
      .cls-1 {
        fill: #d27302;
      }

      .cls-1, .cls-2 {
        stroke-width: 0px;
      }

      .cls-2 {
        fill: #d7d7d7;
      }
    </style>
  </defs>
  <g id="Layer_1-2" data-name="Layer 1">
    <g>
      <path class="cls-1" d="m97.03,61.96h-15.62v-31.68h15.12c6.4,0,10.33,2.97,10.33,8.22,0,3.82-2.24,6.34-5.33,7.19,3.75.85,6.04,4.04,6.04,7.64,0,5.35-3.8,8.63-10.56,8.63h0Zm-2.42-24.67h-4.43v5.57h4.43c2.15,0,3.32-.9,3.32-2.74s-1.16-2.83-3.32-2.83Zm.63,11.82h-5.06v5.75h5.1c2.19,0,3.32-.9,3.32-2.79s-1.2-2.97-3.36-2.97h0Z"/>
      <path class="cls-1" d="m131.62,37.34h-11.41v5.17h10.07v6.7h-10.07v5.71h11.41v7.06h-20.18v-31.68h20.18v7.06h0Z"/>
      <path class="cls-1" d="m144.73,30.29v24.93h9.8v6.74h-18.57v-31.68h8.77Z"/>
      <path class="cls-1" d="m177.39,30.29l11.46,31.68h-9.26l-1.7-5.17h-11.19l-1.7,5.17h-9.22l11.5-31.68h10.11Zm-1.7,19.77l-3.4-10.25-3.36,10.25h6.76Z"/>
      <path class="cls-1" d="m220.93,30.29v31.68h-8.77l-11.68-17.7v17.7h-8.77v-31.68h8.77l11.68,17.92v-17.92h8.77Z"/>
      <path class="cls-1" d="m246.07,40.71c-.99-1.66-2.78-2.61-5.19-2.61-4.43,0-7.12,3.1-7.12,7.96,0,5.44,2.78,8.36,7.97,8.36,3.05,0,5.28-1.44,6.58-4.18h-8.81v-6.34h16.38v8.54c-1.88,4.63-6.76,9.75-14.99,9.75-9.67,0-16.02-6.65-16.02-16.14s6.31-16.09,15.98-16.09c7.97,0,13.42,4.14,14.68,10.74h-9.45Z"/>
      <path class="cls-1" d="m279.99,37.34h-11.41v5.17h10.06v6.7h-10.06v5.71h11.41v7.06h-20.18v-31.68h20.18v7.06h0Z"/>
      <path class="cls-1" d="m298.16,30.29c7.84,0,11.77,4.49,11.77,10.16,0,4.14-2.24,7.73-6.94,9.17l7.12,12.36h-9.8l-6.26-11.69h-.94v11.69h-8.77v-31.68h13.83,0Zm-.72,7.37h-4.34v6.61h4.34c2.37,0,3.58-1.17,3.58-3.33,0-1.98-1.2-3.28-3.58-3.28Z"/>
      <path class="cls-2" d="m94.54,92.96h-4.34v10.7h-8.77v-31.68h13.11c7.84,0,11.82,4.45,11.82,10.56,0,5.53-3.8,10.43-11.82,10.43Zm-.85-7.01c2.64,0,3.71-1.35,3.71-3.42s-1.08-3.46-3.71-3.46h-3.49v6.88h3.49Z"/>
      <path class="cls-2" d="m127.67,71.98l11.46,31.68h-9.26l-1.7-5.17h-11.19l-1.7,5.17h-9.22l11.5-31.68h10.12Zm-1.7,19.77l-3.4-10.25-3.36,10.25h6.76Z"/>
      <path class="cls-2" d="m155.82,71.98c7.84,0,11.77,4.49,11.77,10.16,0,4.14-2.24,7.73-6.94,9.17l7.12,12.36h-9.8l-6.26-11.69h-.94v11.69h-8.77v-31.68h13.83,0Zm-.72,7.37h-4.34v6.61h4.34c2.37,0,3.58-1.17,3.58-3.33,0-1.98-1.2-3.28-3.58-3.28Z"/>
      <path class="cls-2" d="m191.02,71.98l11.46,31.68h-9.26l-1.7-5.17h-11.19l-1.7,5.17h-9.22l11.5-31.68h10.12Zm-1.7,19.77l-3.41-10.25-3.35,10.25h6.76Z"/>
      <path class="cls-2" d="m234.3,87.79c0,9.17-6.4,15.87-16.47,15.87h-12.48v-31.68h12.48c10.07,0,16.47,6.52,16.47,15.82Zm-17.13,8.09c5.06,0,8.23-2.88,8.23-8.09s-3.18-8.18-8.23-8.18h-3.05v16.26h3.05Z"/>
      <path class="cls-2" d="m238.23,71.98h8.77v31.68h-8.77v-31.68Z"/>
      <path class="cls-2" d="m251.06,93.81h9.35c.18,2.38,1.56,3.19,3.18,3.19s2.78-.81,2.78-2.29c-.04-5.08-15.35-2.7-15.21-13.71,0-6.2,5.15-9.53,11.82-9.53,7.25,0,11.99,3.55,12.3,9.84h-9.53c-.09-1.98-1.29-2.88-2.91-2.88-1.29-.05-2.33.72-2.33,2.25,0,4.72,15.17,3.19,15.17,13.35,0,5.57-4.3,9.93-11.77,9.93-7.03,0-12.48-3.37-12.84-10.16h-.01Z"/>
      <path class="cls-2" d="m49.74,66.97c-5.29,4.96-12.37,8-20.18,8s-13.64,6.13-13.64,13.7v45.29H0v-45.28c0-8.57,3.61-16.27,9.39-21.69,5.29-4.96,12.37-8,20.18-8s13.64-6.13,13.64-13.7c0-6.78-4.91-12.4-11.35-13.49V15.69c15.26,1.17,27.28,13.97,27.28,29.59,0,8.57-3.61,16.27-9.39,21.69h-.01Z"/>
      <path class="cls-1" d="m49.74,66.97c-5.29-4.96-12.37-8-20.18-8s-13.64-6.13-13.64-13.7V0H0v45.28c0,8.57,3.61,16.27,9.39,21.69,5.29,4.96,12.37,8,20.18,8s13.64,6.13,13.64,13.7c0,6.78-4.91,12.4-11.35,13.49v16.11c15.26-1.17,27.28-13.97,27.28-29.59,0-8.57-3.61-16.27-9.39-21.69h-.01Z"/>
    </g>
  </g>
</svg>