<?xml version="1.0" encoding="utf-8"?>
<!-- Generator: Adobe Illustrator 16.0.0, SVG Export Plug-In . SVG Version: 6.00 Build 0)  -->
<!DOCTYPE svg PUBLIC "-//W3C//DTD SVG 1.1//EN" "http://www.w3.org/Graphics/SVG/1.1/DTD/svg11.dtd">
<svg version="1.1" xmlns="http://www.w3.org/2000/svg" xmlns:xlink="http://www.w3.org/1999/xlink" x="0px" y="0px" width="600px"
	 height="600px" viewBox="0 0 600 600" enable-background="new 0 0 600 600" xml:space="preserve">
<g id="Layer_2">
</g>
<g id="Layer_1">
	<g>
		<path fill="#FFFFFE" d="M444.272,195.062c-2.849,2.624-5.718,5.347-8.558,8.155c18.071,16.589,32.922,36.676,43.469,59.223
			c3.477-2.887,6.638-5.607,9.514-8.154C477.645,231.855,462.505,211.802,444.272,195.062z"/>
		<path fill="#FFFFFE" d="M308.506,142.205c-63.938,0-111.057,30.732-147.864,76.652l4.303,7.379
			c34.34-43.247,81.774-72.192,144.773-72.192c21.107,0,41.391,3.522,60.318,10.014c-2.762-5.443-5.756-10.405-8.95-14.872
			C344.325,144.651,326.703,142.205,308.506,142.205z"/>
		<path fill="#FFFFFE" d="M299.254,531.708c-109.401,0-204.349-77.072-204.349-194.196c0-109.502,76.927-194.053,156.834-222.566
			l0.114-6.005C152.75,142.205,79.583,236.326,79.583,338.033c0,121.427,97.471,205.154,217.707,205.154
			c61.682,0,115.816-25.899,153.959-64.89c1.494-6.234,2.231-12.814,2.348-19.627C417.846,501.961,362.831,531.708,299.254,531.708z
			"/>
	</g>
	<g>
		<path fill="#FFFFFE" d="M129.759,352.213h94.265c0.426,3.145,0.642,6.744,0.642,10.818c0,9.298-0.216,15.959-0.642,19.969
			c-0.754,7.096-3.466,12.795-8.138,17.101c-4.673,4.309-11.575,7.451-20.707,9.416c-9.669,2.099-29.869,3.146-60.583,3.146
			c-21.487,0-37.357-0.625-47.619-1.881c-10.259-1.243-18.883-3.586-25.857-7.012c-10.751-5.294-16.708-13.291-17.89-23.99
			c-0.544-4.305-0.754-9.798-0.644-16.484c0-1.047-0.056-5.381-0.166-12.998c0-1.51,0-3.113,0-4.799
			c0-8.956,0.486-15.758,1.451-20.416c3.228-16.271,13.965-26.449,32.227-30.528c7.951-1.742,18.213-2.785,30.783-3.136
			c7.513-0.17,17.509-0.261,29.966-0.261c17.832,0,30.373,0.161,37.628,0.477c7.246,0.325,13.558,0.972,18.932,1.963
			c18.586,3.375,28.685,10.759,30.293,22.155c0.215,2.103,0.324,5.819,0.324,11.17h-24.332c-0.111-5.238-0.431-8.912-0.972-11.043
			c-0.533-2.118-1.716-4.166-3.541-6.143c-3.224-3.493-11.116-5.616-23.687-6.364c-8.056-0.466-22.292-0.699-42.705-0.699
			c-18.154,0-31.421,0.666-39.794,2.01c-9.887,1.626-16.276,6.043-19.174,13.249c-1.51,3.662-2.421,14.832-2.743,33.498
			c0.109,14.717,0.322,23.35,0.646,25.905c0.539,6.574,2.549,11.556,6.042,14.962c3.491,3.404,8.886,5.658,16.193,6.759
			c9.136,1.396,26.964,2.093,53.498,2.093c14.823,0,25.991-0.447,33.518-1.352c7.521-0.909,12.833-2.399,15.949-4.495
			c4.723-3.255,7.085-11.253,7.085-23.984c0-1.684-0.103-4.221-0.314-7.592h-69.934V352.213z"/>
		<path fill="#FFFFFE" d="M237.833,411.444V292.378h90.87c16.961,0,29.735,1.735,38.31,5.23c7.454,3.023,12.482,7.591,15.092,13.699
			c1.677,3.779,2.518,8.866,2.518,15.262c0,12.964-3.729,21.579-11.183,25.817c-4.579,2.615-11.841,4.424-21.816,5.409v0.264
			c9.135,0.352,16.408,2.327,21.816,5.934c4.374,3.028,6.989,6.749,7.831,11.166c0.46,2.205,0.694,4.185,0.694,5.934v30.352h-21.391
			v-27.299c0-3.902-0.551-7.126-1.678-9.688c-3.909-7.908-15.426-11.599-34.527-11.078h-65.147v48.065H237.833z M259.222,351.869
			h62.353c13.879,0,23.995-1.196,30.331-3.584c7.65-2.905,11.469-8.658,11.469-17.267c0-5.06-0.231-9.305-0.705-12.729
			c-1.11-7.221-6.422-11.611-15.931-13.175c-5.126-0.817-11.047-1.22-17.757-1.22h-69.76V351.869z"/>
		<path fill="#FFFFFE" d="M535.093,371.666h22.483c0,2.963,0,4.923,0,5.841c0.096,10.414-1.912,17.919-6.024,22.512
			c-5.586,6.22-16.169,10.086-31.749,11.597c-7.158,0.698-24.252,1.047-51.296,1.047c-16.266,0-28.861-0.844-37.771-2.53
			c-15.199-2.783-25.286-9.268-30.284-19.447c-3.232-6.69-4.849-19.46-4.849-38.298c0-15.993,0.243-25.758,0.738-29.304
			c0.978-7.971,4.379-14.327,10.216-19.058c5.831-4.742,14.476-8.155,25.94-10.248c9.701-1.748,29.247-2.62,58.64-2.62
			c16.071,0,27.59,0.637,34.541,1.917c15.486,2.91,24.646,9.393,27.485,19.446c0.789,2.51,1.418,7.915,1.915,16.228H532.59
			c0-1.972-0.055-3.193-0.155-3.666c-0.085-5.517-0.881-9.749-2.346-12.689c-1.465-2.929-3.92-5.1-7.344-6.49
			c-5.093-2.156-16.079-3.229-32.93-3.229c-18.813,0-33.315,0.374-43.505,1.131c-6.559,0.468-11.74,1.558-15.504,3.268
			c-3.778,1.714-6.59,4.297-8.453,7.726c-2.057,3.663-3.089,9.507-3.089,17.534c0,14.418,0.3,27.152,0.887,38.205
			c0.782,14.124,4.947,22.91,12.498,26.344c5.087,2.321,13.322,3.633,24.683,3.92c5.778,0.174,11.953,0.264,18.528,0.264
			c15.87,0,27.795-0.382,35.79-1.139c7.981-0.751,13.541-2.003,16.674-3.751c4.711-2.663,7.059-8.338,7.059-17.003
			C535.383,377.301,535.279,374.809,535.093,371.666z"/>
	</g>
	<path fill="#FFFFFE" d="M95.654,354.502c-0.452-5.57-0.749-11.218-0.749-16.99c0-109.502,76.927-194.053,156.834-222.566
		l0.114-6.005C152.75,142.205,79.583,236.326,79.583,338.033c0,6.15,0.315,12.173,0.805,18.124L95.654,354.502z"/>
	<path opacity="0.5" fill="#FFFFFE" d="M183.429,565.617c0,0,39.278,2.423,72.215,1.808c57.102-1.065,63.525-8.419,63.525-8.419
		s-37.346-1.508-55.397-4.219c-18.056-2.708-26.177-8.124-26.177-8.124s122.764,12.64,188.656-31.59
		c74.675-50.124-27.074-206.726-27.074-206.726s35.6-11.051,68.094-36.33c32.497-25.271,45.071-41.393,45.071-41.393
		s73.074,207.807-12.067,299.792C399.177,639.641,183.429,565.617,183.429,565.617z"/>
	<path opacity="0.75" fill="#FFFFFE" d="M275.438,106.403c0,0,64.146-4.212,95.261,58.914c25.133,51.02,18.388,88.308,18.388,88.308
		s24.493-28.288,45.528-49.33c21.048-21.04,44.623-38.054,44.623-38.054s-3.803-44.384-25.759-86.469
		C431.522,37.694,411.165,9.87,411.165,9.87s6.535,23.811-36.009,57.199C332.609,100.454,275.438,106.403,275.438,106.403z"/>
</g>
</svg>
