<svg width="180" height="90" viewBox="0 0 180 90" fill="none" xmlns="http://www.w3.org/2000/svg">
<path fill-rule="evenodd" clip-rule="evenodd" d="M66.2661 89.1228H70.8624V72.9608H66.2661V89.1228Z" fill="#FB6B4F"/>
<path fill-rule="evenodd" clip-rule="evenodd" d="M68.5642 65.7225C67.2448 65.7225 65.9258 66.5641 65.9258 68.2476C65.9255 69.9311 67.347 70.7727 68.5642 70.7727C69.8836 70.7727 71.2027 69.9311 71.2027 68.2479C71.203 66.5644 69.8836 65.7225 68.5642 65.7225Z" fill="#FB6B4F"/>
<path fill-rule="evenodd" clip-rule="evenodd" d="M12.7659 75.6552L4.59625 65.554H0V89.1233H5.10688V73.6354L12.7659 83.0622L20.4263 73.6354V89.1233H25.5325V65.554H20.9372L12.7659 75.6552Z" fill="#FB6B4F"/>
<path fill-rule="evenodd" clip-rule="evenodd" d="M41.3805 64.7119H36.6142L33.8911 69.763H37.6355L41.3805 64.7119Z" fill="#FB6B4F"/>
<path fill-rule="evenodd" clip-rule="evenodd" d="M54.6746 85.2512C52.3243 85.2512 50.419 83.4938 50.419 81.0423C50.419 78.5908 52.3243 76.8334 54.6746 76.8334C57.0249 76.8334 58.9303 78.5908 58.9303 81.0423C58.9303 83.4938 57.0249 85.2512 54.6746 85.2512ZM58.7596 75.3181H58.5893C58.0671 74.5776 56.3749 72.6243 53.3124 72.6243C49.6137 72.6243 45.8228 75.7903 45.8228 81.0426C45.8228 86.3697 49.7659 89.4603 53.3124 89.4603C56.3749 89.4603 58.0671 87.507 58.5893 86.7665H58.7596V89.1234H63.3556V65.5541H58.7596V75.3181Z" fill="#FB6B4F"/>
<path fill-rule="evenodd" clip-rule="evenodd" d="M32.1885 79.1906C32.7053 77.6477 34.061 76.3283 35.9331 76.3283C37.8056 76.3283 39.161 77.6477 39.6778 79.1906H32.1885ZM36.1038 72.2882C31.1753 72.2357 27.4106 76.3636 27.4106 80.7885C27.4106 85.4427 31.0938 89.4602 36.3947 89.4602C38.9456 89.4602 41.5338 88.5386 43.4231 86.7661L41.04 83.5673C39.91 84.7612 38.4128 85.4189 36.5738 85.4189C34.4891 85.4189 32.8466 84.4738 32.1885 82.5575H44.2741C45.4122 77.3921 41.5488 72.2542 36.1038 72.2882Z" fill="#FB6B4F"/>
<path fill-rule="evenodd" clip-rule="evenodd" d="M98.1475 89.1228H102.744V65.5535H98.1475V89.1228Z" fill="#FB6B4F"/>
<path fill-rule="evenodd" clip-rule="evenodd" d="M134.138 74.9814H133.968V72.6245H129.372V89.1231H133.968V80.6052C133.968 78.8238 135.147 77.0018 137.543 77.0018C139.498 77.0018 140.607 78.2582 140.607 80.1138V89.1231H145.203V79.389C145.203 75.3208 142.505 72.6245 139.075 72.6245C136.137 72.6245 134.66 74.2409 134.138 74.9814Z" fill="#FB6B4F"/>
<path fill-rule="evenodd" clip-rule="evenodd" d="M155.773 76.4966C157.975 76.4966 159.404 77.956 159.858 78.517L162.752 75.6551C162.071 74.7127 159.874 72.2881 155.773 72.2881C151.135 72.2881 146.921 75.8423 146.921 80.8739C146.921 85.8978 151.147 89.4601 155.773 89.4601C159.874 89.4601 162.071 87.0361 162.752 86.0925L159.858 83.2309C159.404 83.7921 157.975 85.2516 155.773 85.2516C153.615 85.2516 151.518 83.6089 151.518 80.8739C151.518 78.1393 153.615 76.4966 155.773 76.4966Z" fill="#FB6B4F"/>
<path fill-rule="evenodd" clip-rule="evenodd" d="M122.352 82.0523C122.352 82.7712 122.199 83.4113 121.893 83.9716C121.587 84.5335 120.694 85.7562 118.778 85.7562C118.323 85.7562 116.735 85.7033 116.735 84.0721C116.735 83.122 117.501 82.5895 118.608 82.3889L122.352 81.7158V82.0523ZM119.799 72.2883C115.953 72.2883 113.716 74.5893 112.99 75.4869L115.714 78.1801C116.122 77.6645 117.453 76.3278 119.459 76.3278C121.145 76.3278 122.222 77.413 122.352 78.5166L117.075 79.4596C114.131 79.9794 112.139 81.9565 112.139 84.7465C112.139 87.5089 114.24 89.4604 117.246 89.4604C120.037 89.4604 121.66 87.7543 122.183 87.1034H122.352V89.1232H126.948V78.8538C126.948 77.6191 126.647 76.5028 126.046 75.5032C125.445 74.5053 123.658 72.2883 119.799 72.2883Z" fill="#FB6B4F"/>
<path fill-rule="evenodd" clip-rule="evenodd" d="M167.705 79.1906C168.222 77.6477 169.578 76.3283 171.45 76.3283C173.322 76.3283 174.678 77.6477 175.194 79.1906H167.705ZM171.62 72.2882C166.692 72.2357 162.927 76.3636 162.927 80.7885C162.927 85.4427 166.61 89.4602 171.911 89.4602C174.462 89.4602 177.05 88.5386 178.94 86.7661L176.557 83.5673C175.427 84.7612 173.929 85.4189 172.09 85.4189C170.006 85.4189 168.363 84.4738 167.705 82.5575H179.791C180.929 77.3921 177.065 72.2542 171.62 72.2882Z" fill="#FB6B4F"/>
<path fill-rule="evenodd" clip-rule="evenodd" d="M105.653 89.1228H110.25V72.9608H105.653V89.1228Z" fill="#FB6B4F"/>
<path fill-rule="evenodd" clip-rule="evenodd" d="M107.952 65.7225C106.633 65.7225 105.313 66.5641 105.313 68.2476C105.313 69.9311 106.735 70.7727 107.952 70.7727C109.271 70.7727 110.59 69.9311 110.59 68.2479C110.591 66.5644 109.271 65.7225 107.952 65.7225Z" fill="#FB6B4F"/>
<path fill-rule="evenodd" clip-rule="evenodd" d="M91.985 38.2565C92.3725 37.3049 102.173 14.3286 102.622 13.2444C103.411 11.3415 104.783 9.50997 105.374 9.31743C106.92 10.2001 108.49 14.2637 109.603 16.7999C109.574 16.8064 94.7631 35.3541 91.985 38.2565ZM129.749 10.9307C133.202 10.9307 136.078 13.1712 138.013 15.5185C139.149 16.8957 146.882 26.622 147.921 27.8969C147.921 27.8969 145.481 35.6511 143.487 39.2888C141.73 42.4969 139.584 44.6072 137.658 44.6072C134.322 44.6072 129.61 38.5467 127.644 34.3091C124.028 26.5191 119.93 17.3266 119.93 17.3266C121.237 15.7914 124.321 10.9307 129.749 10.9307ZM162.557 11.6339C162.557 11.6339 165.44 21.0777 167.889 29.4453C169.744 35.7821 170.657 38.0346 171.266 42.0358C168.296 39.9894 161.875 31.9692 157.781 26.7985L162.557 11.6339ZM113.47 25.3212C113.47 25.3212 118.99 38.0525 121.042 41.5431C123.289 45.4766 129.141 54.0149 137.287 54.0149C146.242 54.0149 151.414 46.5753 154.732 36.5053C154.732 36.5053 161.127 44.4085 164.815 47.5501C170.641 52.5134 174.381 52.4976 177.12 50.5116C181.532 47.3115 179.752 39.6782 179.024 36.8682C178.419 34.5406 173.067 16.1323 171.454 10.392C170.778 7.98442 168.466 0.574261 162.332 0.574261C159.209 0.574261 156.015 3.27611 154.52 7.24328C152.872 11.6175 151.497 16.5341 150.952 18.2742C150.952 18.2742 146.541 12.7725 144.669 10.4118C143.085 8.41403 138.004 2.59153 129.752 2.59153C124.857 2.59153 119.784 4.73398 116.077 8.78831C114.352 4.93734 110.701 0.309082 105.549 0.309082C103.179 0.309082 98.2562 1.12749 94.5706 9.5245C94.064 10.6786 89.33 21.6807 84.8278 32.4315C81.41 40.5933 78.8468 47.9309 83.7815 51.1121C89.0118 54.484 96.0384 46.9484 102.299 39.1704C102.871 38.4602 113.47 25.3212 113.47 25.3212Z" fill="#FB6B4F"/>
<path fill-rule="evenodd" clip-rule="evenodd" d="M90.4707 89.1228H95.0669V65.5535H90.4707V89.1228Z" fill="#FB6B4F"/>
<path fill-rule="evenodd" clip-rule="evenodd" d="M82.5047 83.9716C82.5044 83.972 82.5041 83.9726 82.5041 83.9729C82.4344 84.1005 82.3569 84.2198 82.2747 84.3348C82.2544 84.3629 82.2316 84.392 82.2091 84.421C82.1444 84.506 82.0757 84.587 82.0035 84.6646C81.9735 84.697 81.9425 84.7295 81.91 84.7619C81.825 84.846 81.7366 84.9264 81.6425 85.0008C81.6269 85.0135 81.6119 85.0259 81.596 85.0382C81.4797 85.1269 81.3575 85.2098 81.2278 85.2846C80.8322 85.513 80.3997 85.6561 79.9325 85.7185C79.9025 85.7222 79.8725 85.7262 79.8419 85.7296C79.6944 85.7457 79.5441 85.7562 79.3897 85.7562H79.3894C79.2835 85.7562 79.1822 85.7519 79.0844 85.7444C79.0722 85.7435 79.0613 85.7429 79.0488 85.742C78.9719 85.7352 78.8994 85.725 78.8275 85.7139C78.791 85.708 78.7544 85.7021 78.7166 85.6947C78.7063 85.6925 78.6966 85.6897 78.6863 85.6876C78.5847 85.6659 78.4803 85.6378 78.3763 85.6001C78.3725 85.5989 78.3688 85.5973 78.3647 85.5961C78.1485 85.5164 77.9372 85.3952 77.7625 85.2172C77.7479 85.202 77.7322 85.1881 77.7185 85.1724C77.6969 85.1483 77.6778 85.1208 77.6575 85.0945C77.6282 85.0549 77.5985 85.0157 77.5738 84.9727C77.5694 84.9659 77.5657 84.9582 77.5616 84.9511C77.4925 84.8278 77.4394 84.6955 77.4038 84.5539C77.401 84.5422 77.3991 84.5295 77.3966 84.5178C77.3825 84.4566 77.3707 84.3944 77.3625 84.3302C77.3532 84.2483 77.3466 84.1636 77.3466 84.0721C77.3466 83.6465 77.5113 83.2812 77.84 82.9783C77.9069 82.9168 77.9829 82.8627 78.0607 82.8102C78.3169 82.6448 78.6316 82.5212 78.99 82.4368C79.066 82.4204 79.1385 82.4013 79.2194 82.3886L82.9638 81.7161V82.0523C82.9638 82.7712 82.811 83.4113 82.5047 83.9716ZM87.4682 77.7322C87.3391 76.9342 87.0713 76.1903 86.6578 75.5032C86.6069 75.4192 86.5444 75.3237 86.4763 75.2241C86.1066 74.678 85.6569 74.2011 85.1282 73.7935C85.11 73.7793 85.0907 73.7654 85.0722 73.7511C84.9913 73.6899 84.9097 73.6297 84.825 73.5716C84.7447 73.5159 84.6597 73.4619 84.5741 73.4075C84.5472 73.3911 84.5213 73.3738 84.4941 73.3574C84.3763 73.2854 84.2529 73.2161 84.1247 73.1488C84.1238 73.1482 84.1228 73.1475 84.1219 73.1469C84.121 73.1466 84.1203 73.1463 84.1197 73.146C83.9928 73.0789 83.8607 73.0153 83.7232 72.9538C83.71 72.9479 83.6969 72.9423 83.6838 72.9364C83.5603 72.8824 83.4341 72.8304 83.3025 72.7816C83.2707 72.7695 83.2382 72.759 83.206 72.7476C83.0891 72.7059 82.971 72.6648 82.8472 72.628C82.7772 72.607 82.7047 72.5897 82.6335 72.5705C82.4991 72.5347 82.3622 72.501 82.22 72.4713C82.0925 72.4447 81.9644 72.4197 81.8341 72.399C81.7688 72.3885 81.7013 72.3801 81.6344 72.3712C81.4988 72.3529 81.3613 72.3378 81.2225 72.3257C81.1603 72.3205 81.0985 72.3149 81.0353 72.3106C80.83 72.2973 80.6229 72.2883 80.4107 72.2883C80.1872 72.2883 79.9682 72.2979 79.7513 72.3127C79.7147 72.3152 79.6788 72.3186 79.6425 72.3217C79.4407 72.3375 79.2416 72.36 79.0454 72.3888C79.0444 72.3888 79.0435 72.3888 79.0429 72.3891C78.2738 72.5019 77.5469 72.7105 76.8647 73.0193C75.6779 73.5394 74.796 74.2432 74.2116 74.819C74.2022 74.8282 74.1922 74.8372 74.1829 74.8468C74.0844 74.9444 73.9963 75.0372 73.9154 75.1252C73.8904 75.1528 73.866 75.1803 73.8413 75.2078C73.7507 75.3094 73.6679 75.4056 73.6022 75.4869L76.3254 78.1801C76.4088 78.0747 76.501 77.9748 76.595 77.8759C76.646 77.8228 76.7013 77.7681 76.7619 77.7109C76.8038 77.6707 76.8475 77.6318 76.8916 77.5928C76.9678 77.5248 77.0491 77.4562 77.1372 77.387C77.2191 77.323 77.3025 77.2603 77.39 77.1997C77.4369 77.1669 77.4866 77.1348 77.5363 77.1023C77.6372 77.0371 77.7416 76.9741 77.8497 76.9132C77.9197 76.8743 77.9932 76.8372 78.0675 76.8007C78.1066 76.7812 78.1463 76.7639 78.1857 76.7457C78.3382 76.6758 78.4978 76.6115 78.6663 76.5559C78.6872 76.5488 78.7085 76.542 78.7294 76.5355C78.8675 76.4919 79.0119 76.4561 79.16 76.4252C79.2419 76.4085 79.3235 76.3915 79.4069 76.3794C79.4688 76.3702 79.5322 76.3631 79.5957 76.3563C79.7519 76.3405 79.9091 76.3278 80.0704 76.3278C80.0707 76.3278 80.0707 76.3278 80.0707 76.3278C80.1863 76.3278 80.2982 76.3343 80.4082 76.3439C80.465 76.3491 80.52 76.3569 80.575 76.3646C80.6229 76.3708 80.6707 76.3776 80.7172 76.3859C80.7841 76.398 80.8497 76.4116 80.9141 76.4273C80.9463 76.4351 80.9782 76.4437 81.01 76.4527C81.076 76.4709 81.1416 76.4895 81.2047 76.5114C81.2738 76.5355 81.3416 76.5624 81.4075 76.5911C81.4375 76.6041 81.4672 76.6168 81.4966 76.6304C81.5816 76.6712 81.6638 76.7139 81.7419 76.7599C81.7582 76.7695 81.7738 76.7797 81.7897 76.7896C81.8528 76.8282 81.9128 76.869 81.9713 76.9107C82.0022 76.9336 82.0335 76.9562 82.0632 76.98C82.0969 77.0065 82.1288 77.0347 82.1607 77.0625C82.3094 77.1926 82.4397 77.3348 82.5494 77.4865C82.5603 77.502 82.5722 77.5168 82.5828 77.5323C82.6135 77.5768 82.6413 77.6222 82.6685 77.6679C82.6866 77.6992 82.7044 77.7304 82.721 77.7619C82.7397 77.7971 82.7578 77.8324 82.7747 77.8679C82.8453 78.0227 82.8985 78.1825 82.93 78.3491L82.9635 78.5148C82.9635 78.5154 82.9638 78.516 82.9638 78.5166L77.6872 79.4596C77.6854 79.4599 77.6838 79.4602 77.6819 79.4608C76.4319 79.683 75.4 80.1408 74.58 80.826C74.5322 80.8655 74.4822 80.9035 74.436 80.9443C74.4147 80.9635 74.395 80.9842 74.3741 81.0037C74.0397 81.3087 73.7497 81.6499 73.5125 82.0261C73.4682 82.0956 73.4297 82.1679 73.3891 82.2393C73.3579 82.2953 73.3238 82.3494 73.2947 82.4065C72.9335 83.1066 72.751 83.886 72.751 84.7465C72.751 84.9026 72.76 85.0552 72.7732 85.2064C72.7757 85.236 72.7782 85.2657 72.7813 85.2954C72.7972 85.4462 72.8179 85.5949 72.8469 85.7404C72.8475 85.7429 72.8482 85.7457 72.8488 85.7482C72.876 85.8838 72.9107 86.0167 72.9497 86.1478C72.9604 86.1843 72.9713 86.2204 72.9829 86.2566C73.0185 86.3663 73.0575 86.4745 73.1016 86.5808C73.1329 86.6577 73.1685 86.7319 73.2038 86.8061C73.2241 86.8481 73.2438 86.8905 73.2654 86.9319C73.4004 87.1943 73.561 87.4397 73.7441 87.6675C73.7497 87.6743 73.7547 87.6811 73.76 87.6879C74.0097 87.9938 74.3004 88.2664 74.6288 88.5004C74.655 88.5189 74.6825 88.5362 74.7091 88.5542C74.8419 88.6447 74.98 88.7285 75.1241 88.8064C75.151 88.8212 75.1744 88.8394 75.2019 88.8536C75.2338 88.8703 75.2669 88.8846 75.2988 88.9003C75.3254 88.9136 75.3519 88.9266 75.3791 88.939C75.9507 89.21 76.5822 89.375 77.2738 89.4338C77.2966 89.4356 77.3194 89.4375 77.3425 89.439C77.511 89.4517 77.6819 89.4604 77.8575 89.4604C78.0219 89.4604 78.1829 89.4529 78.3422 89.4418C78.3635 89.4403 78.3841 89.4384 78.4054 89.4366C79.1447 89.3788 79.8294 89.2029 80.4575 88.9074C81.6891 88.3505 82.4632 87.5157 82.7944 87.1034H82.9638V89.1232H87.56V78.8538C87.56 78.4678 87.5272 78.0951 87.4682 77.7322Z" fill="#FB6B4F"/>
</svg>