<?xml version="1.0" encoding="UTF-8"?>
<svg xmlns="http://www.w3.org/2000/svg" fill="none" height="66" viewBox="0 0 237 66" width="237"><path d="m32.8839 65.7677c18.1612 0 32.8838-14.7226 32.8838-32.8838 0-18.1613-14.7226-32.8839-32.8838-32.8839-18.1613 0-32.8839 14.7226-32.8839 32.8839 0 18.1612 14.7226 32.8838 32.8839 32.8838z" fill="#f5a81c"/><path d="m87.1743 38.6211h1.1182c.5513 1.2812 1.1103 2.5468 1.6616 3.8047s1.1026 2.5081 1.6462 3.7582c.5513 1.2501 1.0948 2.5002 1.6383 3.7504.5436 1.2501 1.0949 2.5158 1.6462 3.7892h-.5902c-.2562 0-.4969-.0699-.6988-.2019-.2096-.1398-.3649-.3183-.4659-.5513l-1.2346-2.8108h-8.3316l-1.2113 2.8108c-.1009.233-.2562.4193-.4659.5513-.2174.1398-.4503.2019-.7143.2019h-.5902zm-3.0205 10.2107h7.1669l-3.3854-7.757c-.0388-.0777-.0699-.1631-.0932-.2718-.0311-.1009-.0466-.2019-.0621-.2873-.0233-.1087-.0388-.2096-.0388-.3184-.0156.1088-.0311.2097-.0544.3184-.0155.0932-.031.1864-.0543.2873s-.0544.1941-.0932.2718z" fill="#f5a81c"/><path d="m111.675 53.7158h-8.999v-15.1025h8.999v1.32h-7.679v5.4975h6.219v1.32h-6.219v5.645h7.679z" fill="#f5a81c"/><path d="m122.449 53.7158h-1.32v-15.1025h5.288c.59 0 1.141.1087 1.654.3339.512.2174.962.5202 1.343.9084.38.3805.683.8309.908 1.3434.226.5124.334 1.0637.334 1.6461 0 .5202-.085 1.0249-.264 1.5064-.178.4891-.419.924-.73 1.3044-.31.3883-.683.7066-1.118.9551s-.908.4038-1.421.4581l4.993 6.6467h-.621c-.722 0-1.258-.264-1.6-.7998l-4.395-5.8469h-3.059v6.6467zm0-13.7825v5.8158h3.975c.404 0 .777-.0776 1.134-.2252.357-.1475.66-.3571.924-.6211s.474-.5746.629-.9241c.155-.3571.233-.7298.233-1.1336s-.078-.7765-.233-1.1259-.365-.66-.629-.924-.574-.4737-.924-.629c-.357-.1553-.73-.2329-1.134-.2329z" fill="#f5a81c"/><path d="m139.238 46.1616c0-1.0638.202-2.0732.606-3.005.404-.9396.955-1.7549 1.662-2.4537.698-.6988 1.521-1.2501 2.453-1.6539s1.934-.6056 3.005-.6056c1.072 0 2.073.2018 3.005.6056.94.4038 1.755.9551 2.454 1.6539s1.25 1.5141 1.654 2.4537c.404.9395.605 1.9412.605 3.005 0 1.0637-.201 2.0732-.605 3.0049-.404.9318-.955 1.7549-1.654 2.4537s-1.514 1.2501-2.454 1.6539c-.939.4038-1.941.6057-3.005.6057s-2.065-.2019-3.005-.6057c-.932-.4038-1.755-.9551-2.453-1.6539-.699-.6988-1.258-1.5141-1.662-2.4537-.404-.9395-.606-1.9412-.606-3.0049zm1.32 0c0 .5901.078 1.1569.233 1.7004.156.5436.373 1.0561.645 1.5297.279.4814.613.9085 1.001 1.2967.389.3883.823.7221 1.297 1.0017.474.2795.986.4969 1.53.6445.543.1475 1.11.2251 1.7.2251s1.157-.0776 1.701-.2251c.543-.1476 1.056-.365 1.529-.6445.474-.2796.909-.6134 1.297-1.0017.388-.3882.722-.8153 1.002-1.2967.279-.4736.497-.9861.652-1.5297.148-.5435.225-1.1103.225-1.7004 0-.8852-.171-1.7161-.505-2.4925-.333-.7765-.792-1.4521-1.374-2.0344-.582-.5824-1.258-1.0405-2.034-1.3744-.777-.3339-1.608-.5047-2.493-.5047-.59 0-1.157.0777-1.7.2252-.544.1553-1.056.3649-1.53.6445-.474.2795-.908.6134-1.297 1.0016-.388.3883-.722.8153-1.001 1.2967-.28.4737-.497.9862-.645 1.5297-.155.5435-.233 1.1104-.233 1.7005z" fill="#f5a81c"/><g fill="#fff"><path d="m20.141 37.8613-5.0316 12.2762h4.6356l4.2162-10.4282c-.3106-.1164-.6212-.2407-.924-.3727-1.0016-.4348-1.9645-.9317-2.8962-1.4753z"/><path d="m41.7734 39.6233 4.2474 10.5135h4.6355l-5.0704-12.3848c-.9861.5901-2.0188 1.1258-3.0981 1.584-.2329.1009-.4737.1941-.7144.2873z"/><path d="m27.1215 31.9216 5.777-14.2795 5.7304 14.1863c.8619-.3261 1.7005-.7144 2.4848-1.1803.427-.2484.8386-.528 1.2346-.8153l-6.8408-16.702c-.3339-.8153-.7299-1.3977-1.1725-1.7316-.4503-.3338-1.1958-.5047-2.2362-.5047h-.893l-7.8269 19.0781c.3417.2329.6911.4659 1.0483.6755.8463.5048 1.747.924 2.6943 1.2657z"/><path d="m80.582 21.818c0-1.0327.132-2.0188.396-2.9739s.6445-1.848 1.1337-2.6711c.4892-.8308 1.0715-1.584 1.7471-2.2595.6755-.6756 1.4287-1.2579 2.2595-1.7471.8309-.4892 1.7238-.8619 2.6789-1.1337.955-.264 1.9412-.396 2.9739-.396s2.0188.132 2.9739.396 1.8403.6445 2.6711 1.1337 1.584 1.0715 2.2595 1.7471c.6754.6755 1.2584 1.4287 1.7474 2.2595s.869 1.7238 1.133 2.6711c.264.9551.396 1.9412.396 2.9739s-.132 2.0189-.396 2.9739c-.264.9551-.644 1.848-1.133 2.6711-.489.8308-1.072 1.584-1.7474 2.2596-.6755.6755-1.4287 1.2578-2.2595 1.747s-1.7238.8697-2.6711 1.1337c-.9551.264-1.9412.396-2.9739.396-1.5452 0-2.9972-.2951-4.3561-.8774-1.3588-.5902-2.539-1.3899-3.5562-2.3993-1.0172-1.0172-1.817-2.1975-2.3993-3.5563-.5902-1.3511-.8775-2.8109-.8775-4.3561zm3.0283 0c0 1.1337.2174 2.1897.6445 3.1758.427.9861 1.0094 1.8558 1.7471 2.5934.7376.7377 1.5995 1.3201 2.5934 1.7471.9861.4271 2.0499.6445 3.1758.6445s2.1897-.2174 3.1758-.6445c.9861-.427 1.848-1.0094 2.5934-1.7471.7377-.7376 1.32-1.5995 1.7471-2.5934.4271-.9861.6445-2.0499.6445-3.1758s-.2174-2.1897-.6445-3.1758-1.0094-1.848-1.7471-2.5934c-.7376-.7377-1.5995-1.32-2.5934-1.7471-.9861-.4271-2.0499-.6445-3.1758-.6445s-2.1897.2174-3.1758.6445-1.8558 1.0094-2.5934 1.7471c-.7377.7376-1.3201 1.5995-1.7471 2.5934-.4271.9861-.6445 2.0499-.6445 3.1758z"/><path d="m118.087 32.7755h-3.028v-21.9044h7.826c.948 0 1.841.1786 2.672.5435.83.365 1.56.8542 2.181 1.4753.622.6212 1.111 1.3511 1.476 2.1819.365.8386.543 1.7238.543 2.6711s-.178 1.8403-.543 2.6789-.854 1.5607-1.476 2.1819c-.621.6212-1.351 1.1103-2.181 1.4753-.839.3649-1.724.5435-2.672.5435h-4.798v8.1453zm4.798-11.1735c.529 0 1.033-.1009 1.499-.295.466-.2019.878-.4737 1.227-.8231s.629-.761.823-1.2268c.202-.4659.295-.9629.295-1.5064s-.101-1.025-.295-1.4986c-.202-.4659-.474-.8774-.823-1.2346-.349-.3494-.761-.629-1.227-.8231-.466-.2019-.97-.295-1.499-.295h-4.798v7.7026z"/><path d="m138.918 13.8837v-3.0282h16.648v3.0282h-6.802v18.8918h-3.029v-18.8918z"/><path d="m169.056 32.7755h-3.029v-21.9044h3.029z"/><path d="m206.179 32.7755h-3.028v-17.4397s-.024.101-.047.2097-.047.2329-.07.3649-.054.2718-.093.4116c-.039.1397-.078.2484-.117.3416l-7.027 16.1119h-2.95l-7.02-16.0963c-.038-.0699-.077-.1631-.108-.2718s-.062-.2252-.086-.3417c-.023-.1164-.046-.2251-.062-.3183-.015-.0932-.023-.1708-.023-.2252v17.2533h-3.028v-21.9044h2.508c.481 0 .916.132 1.304.3882.396.2563.683.5979.862 1.0172l6.833 15.6694c.078.2018.147.4193.194.6367s.078.4581.085.7143c.032-.5125.125-.955.288-1.3433l6.833-15.6693c.194-.4348.489-.7843.885-1.0327.396-.2485.823-.3727 1.281-.3727h2.57v21.9044z"/><path d="m227.794 12.214c-.209-.5047-.45-.8541-.737-1.0715-.303-.2252-.761-.3339-1.398-.3339h-.691l-9.015 21.9743h3.191l6.95-17.1757 6.934 17.1757h3.191l-8.417-20.5611z"/></g></svg>