<svg xmlns="http://www.w3.org/2000/svg" width="149" height="52" viewBox="0 0 149 52" fill="none"><path d="M0.00384521 49.8718V44.4663L1.29327 43.1769H5.03376L6.29995 44.4431V45.4924H4.97955V44.9116L4.3755 44.3192H1.98251L1.33199 44.9581V49.38L1.98251 50.019H4.3755L4.97955 49.4265V48.8457H6.29995V49.895L5.03376 51.1612H1.29327L0.00384521 49.8718Z" fill="#B7CDD2"></path><path d="M12.2398 49.8718V44.4663L13.5292 43.1768H17.4749L18.7644 44.4663V49.8718L17.4749 51.1612H13.5292L12.2398 49.8718ZM16.7857 50.0189L17.4362 49.38V44.958L16.7857 44.3191H14.2107L13.5602 44.958V49.38L14.2107 50.0189H16.7857Z" fill="#B7CDD2"></path><path d="M25.1031 43.1807H26.3112L30.0749 48.9851H30.0981V43.1807H31.3643V51.1612H30.1562L26.3925 45.3685H26.3693V51.1612H25.1031V43.1807Z" fill="#B7CDD2"></path><path d="M37.6449 49.9841V48.9812H38.946V49.5852L39.3797 50.0189H41.8656L42.3225 49.562V48.0906L41.8772 47.6453H38.8453L37.672 46.4837V44.354L38.8453 43.1807H42.3573L43.5306 44.354V45.3685H42.2334V44.7528L41.7881 44.3191H39.4184L38.9731 44.7528V46.0771L39.4184 46.5108H42.4503L43.6235 47.684V49.9647L42.427 51.1612H38.8259L37.6527 49.9879L37.6449 49.9841Z" fill="#B7CDD2"></path><path d="M51.3872 44.3075H48.9942V43.1807H55.1044V44.3075H52.7115V51.1612H51.3911V44.3075H51.3872Z" fill="#B7CDD2"></path><path d="M67.0538 48.5824V51.1573H65.7334V48.8999L64.9125 47.9977H62.3143V51.1535H60.9939V43.173H65.8496L67.0112 44.3462V46.7973L66.1787 47.6298L67.0577 48.5746L67.0538 48.5824ZM62.3105 46.9057H65.2533L65.7102 46.4488V44.7489L65.2533 44.292H62.3105V46.9018V46.9057Z" fill="#B7CDD2"></path><path d="M73.4507 49.8253V43.1768H74.7711V49.38L75.4216 50.0189H77.772L78.4225 49.38V43.1768H79.7468V49.8253L78.4147 51.1573H74.7904L73.4584 49.8253H73.4507Z" fill="#B7CDD2"></path><path d="M86.0854 49.8718V44.4663L87.3749 43.1768H91.1154L92.3815 44.443V45.4924H91.0612V44.9116L90.4571 44.3191H88.0641L87.4136 44.958V49.38L88.0641 50.0189H90.4571L91.0612 49.4265V48.8457H92.3815V49.895L91.1154 51.1612H87.3749L86.0854 49.8718Z" fill="#B7CDD2"></path><path d="M100.203 44.3075H97.8102V43.1807H103.92V44.3075H101.527V51.1612H100.207V44.3075H100.203Z" fill="#B7CDD2"></path><path d="M109.864 43.1807H111.185V51.1612H109.864V43.1807Z" fill="#B7CDD2"></path><path d="M117.585 49.8718V44.4663L118.875 43.1768H122.82L124.11 44.4663V49.8718L122.82 51.1612H118.875L117.585 49.8718ZM122.131 50.0189L122.782 49.38V44.958L122.131 44.3191H119.556L118.906 44.958V49.38L119.556 50.0189H122.131Z" fill="#B7CDD2"></path><path d="M130.445 43.1807H131.653L135.417 48.9851H135.44V43.1807H136.706V51.1612H135.498L131.734 45.3685H131.711V51.1612H130.445V43.1807Z" fill="#B7CDD2"></path><path d="M142.99 49.9841V48.9812H144.291V49.5852L144.725 50.0189H147.211L147.668 49.562V48.0906L147.223 47.6453H144.191L143.018 46.4837V44.354L144.191 43.1807H147.703L148.876 44.354V45.3685H147.579V44.7528L147.134 44.3191H144.764L144.319 44.7528V46.0771L144.764 46.5108H147.796L148.969 47.684V49.9647L147.773 51.1612H144.171L142.998 49.9879L142.99 49.9841Z" fill="#B7CDD2"></path><path d="M33.6489 20.1066H33.6412V13.9499H7.67846V8.34302H33.6412V0.838806H0V7.49502V14.9992V21.4541H25.9705V27.061H0V34.5652H33.6412V27.6108H33.6489V20.1066Z" fill="#B7CDD2"></path><path d="M141.496 0.881363V34.5225H149V0.881363H141.496Z" fill="#B7CDD2"></path><path d="M120.094 0.881378V22.8597L101.663 0.892995L101.655 0.900739V0.881378H94.1511V34.5225H101.655V12.5559L120.083 34.5225L120.094 34.5148V34.5225H127.599V0.881378H120.094Z" fill="#B7CDD2"></path><path d="M80.2462 8.34302V0.838806H47.546V0.8814V8.34302V13.9499V21.4541V27.061V34.5226V34.5613H80.2462V27.061H55.0502V21.4541H72.8892V13.9499H55.0502V8.34302H80.2462Z" fill="#B7CDD2"></path></svg>