<svg xmlns:xlink="http://www.w3.org/1999/xlink" xmlns="http://www.w3.org/2000/svg" width="189" height="55.687" viewBox="0 0 189 55.687" class="site-logo">
  <g id="logo" transform="translate(-95.176 -206.141)">
    <path id="Path_1" data-name="Path 1" d="M127.717,261.731h-1.232l-11.7-18.816-5.127,8.251,7.942.023,2.9,4.669-13.773.022-3.638,5.851H95.176l15.51-24.947h8.756l10.5,16.9a12.831,12.831,0,0,0-1.4,2.781,13.118,13.118,0,0,0-.828,5.264Z" transform="translate(0 -21.422)" fill="#D9000D" fill-rule="evenodd"></path>
    <path id="Path_2" data-name="Path 2" d="M170.354,206.141a27.8,27.8,0,0,0-19.116,7.6h5.89a24.181,24.181,0,0,1,34.845,31.073l4,0a27.43,27.43,0,0,0,2.226-10.831,27.847,27.847,0,0,0-27.843-27.844Z" transform="translate(-39.192 0)" fill="#003383" fill-rule="evenodd"></path>
    <path id="Path_3" data-name="Path 3" d="M125.6,312.679q.118.423.25.843l.011.033q.093.294.193.587c.022.063.045.126.067.19.05.143.1.285.151.426l.093.246c.046.123.093.245.141.367.033.083.066.165.1.246.049.12.1.24.148.359q.058.138.118.274c.048.11.1.22.146.329l.114.249q.081.175.164.349l.123.253c.056.114.113.227.171.341l.117.228c.062.12.126.238.19.357l.126.232c.064.118.131.234.2.35.04.07.079.14.12.21.067.115.135.229.2.343.047.077.092.155.14.232.076.123.153.245.23.367.036.056.071.113.107.17.08.125.163.248.245.371q.1.153.206.3c.093.135.187.271.282.405.039.054.079.107.118.162.088.122.176.243.266.363.043.058.088.116.132.174.09.119.18.237.272.354l.14.175c.083.1.167.209.252.312.066.081.134.161.2.241s.144.171.217.255.14.161.21.241.138.157.208.235.148.164.223.245.15.162.225.242.151.159.227.238l.195.2c.089.091.178.181.269.27l.2.2.248.238c.082.078.166.155.249.232l.209.193c.1.091.2.18.3.27.063.056.126.112.19.167.087.075.175.149.263.223s.159.135.239.2c.11.09.221.179.332.268l.164.132q.253.2.51.393c.079.059.16.117.24.176s.181.134.273.2.2.144.307.215l.22.154c.1.067.2.134.3.2l.251.166.256.163.3.188.268.162.284.168c.094.055.189.11.283.163l.267.15.326.178.241.128c.1.054.205.107.309.16l.292.146.3.146.294.138c.1.044.19.089.286.132l.3.131c.107.046.213.093.32.139l.307.127.276.113c.116.046.232.089.348.134l.285.108h0q.3.109.6.212l.01,0,.224.073c.127.042.253.084.38.125.1.031.194.059.291.089.121.037.242.074.364.109l.267.074c.117.033.235.066.353.1l.313.079.348.086.284.065.362.08.289.059.386.075.278.05c.122.022.244.042.366.062l.3.047c.128.019.256.037.385.054l.284.037c.123.016.247.03.371.044l.311.033c.125.013.252.023.378.034l.3.025c.131.01.262.017.393.025l.285.017c.155.008.31.013.466.018l.218.008q.343.009.688.009h0q.358,0,.713-.009h0q.355-.009.709-.027h0c.235-.012.47-.028.7-.045h0q.351-.028.7-.063h0q.349-.036.695-.081h0c.231-.029.461-.063.69-.1h0q.344-.053.685-.115h0q.341-.061.679-.132t.673-.149q.335-.079.668-.165h0a27.955,27.955,0,0,0,11.755-6.392h0q.248-.226.491-.457h0l.257-.248-5.627,0a24.179,24.179,0,0,1-37.8-17.007l-2.821,4.537Z" transform="translate(-21.27 -71.306)" fill="#D9000D" fill-rule="evenodd"></path>
    <path id="Path_4" data-name="Path 4" d="M222.441,276.009h8.813v6.182l-8.67,0c-10.769,0-10.91,12.83-.176,13.09l16.125-.009-3.6,5.8-12.495-.006c-19.641-.021-19.837-25.059.008-25.059Z" transform="translate(-78.614 -48.843)" fill="#003383" fill-rule="evenodd"></path>
    <path id="Path_5" data-name="Path 5" d="M425.6,287v4.86h9.271c0,1.9-.1,2.339-.486,2.741-.66.621-1.945.731-7.952.731l-4.132-.073c-1.979-.074-2.6-.183-3.195-.695-.764-.658-.972-1.9-.972-6.028,0-6.322.034-6.358,8.3-6.358,5.382,0,6.979.146,7.674.658.451.329.521.621.556,2.046h7.049c-.035-3.581-.312-5.079-1.284-6.285-1.528-1.9-4.723-2.521-13.334-2.521-8.125,0-11.806.475-13.472,1.717-1.944,1.389-2.535,3.874-2.535,10.377,0,2.923.07,5.408.174,6.394.278,2.558.9,3.946,2.256,4.9,1.945,1.395,4.41,1.723,12.362,1.723,6.25,0,8.716-.147,11.077-.664A5.263,5.263,0,0,0,441.5,295.4c.1-1.169.243-5.335.243-7.746V287Zm-27.292,4.348H387.96l4.479-9.244h1.389l4.48,9.244Zm4.444,9.463h8.021l-12.119-24.371H387.682l-12.263,24.371h8.061l1.979-4.129h15.313l1.979,4.129Zm-51.668-24.371v6.211H361.4v18.16h7.4v-18.16h10.312v-6.211Zm-29.445,16.3v1.279c0,3.252.521,4.677,2.118,5.737,1.632,1.06,4.444,1.431,11.632,1.431,6.91,0,9.827-.183,11.215-.737,2.431-.95,3.368-3,3.368-7.417,0-3.252-.625-4.933-2.187-5.993-1.493-.986-2.987-1.169-10.625-1.425-4.9-.147-6.806-.256-7.431-.439-.729-.182-1.042-.658-1.042-1.571,0-1.79.521-1.936,6.25-1.936,5.208,0,6.077.073,6.667.438.521.329.625.658.695,2.009h6.806c.035-.511.035-1.023.035-1.242,0-2.777-.59-4.348-1.945-5.3-1.632-1.169-4.1-1.5-10.695-1.5-5.694,0-8.819.147-10.209.438-3.195.731-4.445,2.814-4.445,7.454,0,5.371,1.6,6.906,7.327,7.089,2.118.11,3.959.182,5.625.256l1.84.073,3.716.147c2.257.036,2.778.4,2.778,1.826,0,2.193,0,2.193-7.569,2.193-4.966,0-5.729-.073-6.389-.512-.556-.365-.695-.84-.695-2.3Z" transform="translate(-158.315 -48.886)" fill="#D9000D" fill-rule="evenodd"></path>
    <path id="Path_6" data-name="Path 6" d="M623.355,372.462h1.709q0,.428.174.552a.715.715,0,0,0,.329.1q.2.015,1.272.023c.746,0,1.195-.007,1.344-.014a1.049,1.049,0,0,0,.357-.067c.13-.054.2-.2.2-.437a.379.379,0,0,0-.138-.345,1.25,1.25,0,0,0-.562-.1q-.328,0-1.383-.051-1.082-.052-1.41-.059a4.17,4.17,0,0,1-.978-.122,1.068,1.068,0,0,1-.532-.324,1.89,1.89,0,0,1-.327-1.249,2.025,2.025,0,0,1,.374-1.383,1.412,1.412,0,0,1,.874-.4,20.657,20.657,0,0,1,2.4-.087,15.148,15.148,0,0,1,1.795.072,1.783,1.783,0,0,1,1.1.443,1.683,1.683,0,0,1,.3,1.123c0,.049,0,.139,0,.273h-1.711a1.232,1.232,0,0,0-.041-.332.271.271,0,0,0-.125-.145.984.984,0,0,0-.4-.087q-.289-.02-1.223-.019a7.4,7.4,0,0,0-1.371.07.352.352,0,0,0-.246.388.339.339,0,0,0,.246.374,16.963,16.963,0,0,0,1.872.107q1.4.042,1.877.1a2.017,2.017,0,0,1,.753.219,1.049,1.049,0,0,1,.449.525,2.7,2.7,0,0,1,.132.958,2.612,2.612,0,0,1-.22,1.218,1.043,1.043,0,0,1-.461.438,2.509,2.509,0,0,1-.83.2q-.573.05-2.133.051-1.309,0-1.931-.068a2.578,2.578,0,0,1-.939-.242,1.008,1.008,0,0,1-.452-.493,2.615,2.615,0,0,1-.125-.93v-.271Zm7.787.378H633v1.54h-1.855v-1.54Zm9.044,1.54-.5-.981h-3.832l-.5.981h-2.017l3.073-5.793h2.742l3.03,5.793Zm-1.115-2.25-1.117-2.193H637.6l-1.117,2.193Zm3.552.71h1.854v1.54h-1.854v-1.54Zm8.263-.7h1.766c.01.283.016.465.016.548a2.268,2.268,0,0,1-.2,1.049,1.214,1.214,0,0,1-.861.576,10.832,10.832,0,0,1-2.217.154q-1.653,0-2.357-.064a3,3,0,0,1-1.059-.246,1.118,1.118,0,0,1-.475-.446,1.983,1.983,0,0,1-.2-.768q-.037-.4-.038-1.427,0-1.006.038-1.452a2.191,2.191,0,0,1,.149-.691,1.283,1.283,0,0,1,.98-.716,17.05,17.05,0,0,1,2.978-.164q1.121,0,1.63.051a2.6,2.6,0,0,1,.811.191,1.092,1.092,0,0,1,.556.555,2.807,2.807,0,0,1,.161,1.081c0,.024,0,.122,0,.288h-1.765a2.665,2.665,0,0,0-.036-.387.313.313,0,0,0-.1-.162,1.062,1.062,0,0,0-.514-.129q-.411-.041-1.248-.041t-1.146.036a.9.9,0,0,0-.451.142.729.729,0,0,0-.219.429,5.423,5.423,0,0,0-.06.961,5.349,5.349,0,0,0,.055.927.616.616,0,0,0,.213.388.973.973,0,0,0,.472.153q.326.037,1.149.038c.675,0,1.127-.012,1.351-.033a.792.792,0,0,0,.456-.149,1.045,1.045,0,0,0,.165-.693Z" transform="translate(-369.237 -113.499)" fill="#D9000D"></path>
    <path id="Path_7" data-name="Path 7" d="M368.763,376.159V372.74H267.683a42,42,0,0,1-5.02,3.419Z" transform="translate(-117.086 -116.465)" fill="#D9000D" fill-rule="evenodd"></path>
    <path id="Path_8" data-name="Path 8" d="M426.175,251.1v-3.419H298.3a27.757,27.757,0,0,1,1.931,3.419Z" transform="translate(-141.999 -29.041)" fill="#D9000D" fill-rule="evenodd"></path>
  </g>
</svg>