<?xml version="1.0" encoding="utf-8"?>
<!-- Generator: Adobe Illustrator 24.3.0, SVG Export Plug-In . SVG Version: 6.00 Build 0)  -->
<svg version="1.1" id="Layer_1" xmlns="http://www.w3.org/2000/svg" xmlns:xlink="http://www.w3.org/1999/xlink" x="0px" y="0px"
	 viewBox="0 0 35 35" style="enable-background:new 0 0 35 35;" xml:space="preserve">
<style type="text/css">
	.st0{fill:#D45B07;}
</style>
<g>
	<path class="st0" d="M17.5,12.4c-2.8,0-5,2.2-5,5c0,2.8,2.2,5,5,5c2.8,0,5-2.2,5-5C22.5,14.7,20.3,12.4,17.5,12.4z M17.5,21.2
		c-2.1,0-3.7-1.7-3.7-3.7c0-2.1,1.7-3.7,3.7-3.7v0c2.1,0,3.7,1.7,3.7,3.7C21.3,19.5,19.6,21.2,17.5,21.2z"/>
	<path class="st0" d="M17.5,10L17.5,10c0.2,0,0.4-0.1,0.5-0.2l4-4l-1-1l-2.8,2.8V1.8h-1.4v5.8L14,4.8l-1,1l4,4
		C17.1,9.9,17.3,10,17.5,10z"/>
	<path class="st0" d="M5.9,13.1l-1,1l2.7,2.7H1.9v1.4h5.8L4.9,21l1,1l0,0l4-4c0.3-0.3,0.3-0.7,0-1L5.9,13.1z"/>
	<path class="st0" d="M17,25.2l-4,4l1,1l2.8-2.8v5.8h1.4h0v-5.8l2.8,2.8l1-1l-4-4C17.7,24.9,17.3,24.9,17,25.2z"/>
	<path class="st0" d="M33.1,16.8h-5.7l2.7-2.7l-1-1l-4,4c-0.3,0.3-0.3,0.7,0,1l4,4h0l1-1l-2.8-2.8h5.8V16.8z"/>
</g>
</svg>
