<?xml version="1.0" standalone="no"?>
<!DOCTYPE svg PUBLIC "-//W3C//DTD SVG 20010904//EN"
 "http://www.w3.org/TR/2001/REC-SVG-20010904/DTD/svg10.dtd">
<svg version="1.0" xmlns="http://www.w3.org/2000/svg"
 width="1000.000000pt" height="1000.000000pt" viewBox="0 0 1000.000000 1000.000000"
 preserveAspectRatio="xMidYMid meet">

<g transform="translate(0.000000,1000.000000) scale(0.100000,-0.100000)"
fill="#000000" stroke="none">
<path d="M4706 9989 c-1463 -84 -2816 -809 -3701 -1984 -945 -1255 -1242
-2880 -805 -4402 246 -856 749 -1671 1401 -2269 1163 -1067 2707 -1524 4259
-1258 1658 284 3074 1405 3739 2961 531 1242 531 2684 0 3926 -665 1556 -2081
2677 -3739 2961 -381 65 -769 87 -1154 65z m667 -2373 c309 -50 596 -144 847
-277 118 -63 318 -196 430 -286 114 -92 287 -266 386 -389 492 -613 682 -1405
523 -2179 -101 -486 -353 -948 -714 -1310 -510 -509 -1193 -783 -1905 -762
-282 9 -498 45 -751 127 -67 22 -126 40 -130 40 -4 0 -259 -167 -566 -370
-434 -289 -559 -367 -560 -353 -2 10 46 310 106 668 l108 650 -85 95 c-359
402 -571 852 -654 1385 -28 186 -31 530 -4 710 86 596 335 1097 750 1510 215
214 424 364 691 495 287 142 591 228 930 264 91 9 503 -3 598 -18z"/>
</g>
</svg>
