<svg xmlns="http://www.w3.org/2000/svg" id="Layer_2" data-name="Layer 2" viewBox="0 0 468.29 76.03"><defs><style>      .cls-1 {        fill: #152545;      }      .cls-1, .cls-2 {        stroke-width: 0px;      }      .cls-2 {        fill: #f8384b;      }    </style></defs><g id="Layer_2-2" data-name="Layer 2"><g><path class="cls-2" d="m234.8.06c-20.95,0-37.94,16.99-37.94,37.94s16.98,37.94,37.94,37.94,37.94-16.98,37.94-37.94S255.76.06,234.8.06Zm0,57.58c-2.52,0-4.93-.48-7.15-1.33l-8.59,5.72,1.7-10.2c-3.59-3.59-5.81-8.55-5.81-14.02,0-10.96,8.88-19.84,19.84-19.84s19.84,8.88,19.84,19.84-8.88,19.84-19.84,19.84h0Z"></path><path class="cls-2" d="m19.75,29.33h28.52V0h19.75v75.99h-19.75v-31.34h-28.52v31.34H0V0h19.75v29.33Z"></path><path class="cls-2" d="m125.82,62.79h-28.22l-4.53,13.2h-21.06L100.93,0h21.57l28.92,75.99h-21.06l-4.53-13.2s-.01,0-.01,0Zm-5.24-15.02l-8.87-25.3-8.87,25.3h17.74Z"></path><path class="cls-2" d="m175.15,0v59.26h23.68v16.73h-43.44V0h19.76Z"></path><path class="cls-1" d="m297.98,76.02h-19.76V0h31.45c8.54,0,15.07,2.22,19.61,6.65,4.54,4.43,6.81,10.69,6.81,18.76s-2.27,14.32-6.81,18.76-11.07,6.65-19.61,6.65h-11.69v25.21h0Zm0-41.13h6.55c7.26,0,10.89-3.16,10.89-9.48s-3.63-9.48-10.89-9.48h-6.55v18.95h0Z"></path><path class="cls-1" d="m380.27,20.42c-2.04-1.66-4.08-2.88-6.11-3.68-2.04-.79-4.01-1.19-5.92-1.19-2.42,0-4.39.57-5.92,1.72-1.53,1.14-2.29,2.64-2.29,4.49,0,1.28.38,2.32,1.14,3.15s1.77,1.54,3.01,2.15,2.64,1.13,4.2,1.58,3.11.92,4.63,1.43c6.11,2.04,10.58,4.76,13.42,8.16,2.83,3.41,4.25,7.84,4.25,13.32,0,3.69-.62,7.04-1.86,10.03s-3.06,5.56-5.44,7.69c-2.39,2.13-5.31,3.78-8.78,4.97s-7.4,1.76-11.79,1.76c-9.1,0-17.54-2.7-25.3-8.11l8.02-15.08c2.8,2.48,5.57,4.33,8.31,5.54s5.44,1.81,8.12,1.81c3.06,0,5.33-.7,6.82-2.1,1.49-1.4,2.25-2.99,2.25-4.77,0-1.08-.19-2.02-.57-2.82-.38-.79-1.02-1.53-1.91-2.2s-2.05-1.29-3.48-1.86c-1.43-.57-3.17-1.21-5.21-1.91-2.42-.76-4.79-1.61-7.11-2.53s-4.39-2.15-6.21-3.68c-1.81-1.53-3.28-3.46-4.39-5.78-1.11-2.32-1.67-5.27-1.67-8.83s.59-6.8,1.76-9.69c1.18-2.89,2.84-5.38,4.97-7.44,2.13-2.07,4.74-3.68,7.83-4.82,3.06-1.15,6.52-1.73,10.33-1.73,3.56,0,7.29.49,11.17,1.48s7.61,2.43,11.17,4.35l-7.44,14.61v-.02h0Z"></path><path class="cls-1" d="m442.68,62.79h-28.22l-4.54,13.2h-21.07L417.79,0h21.57l28.93,75.99h-21.07l-4.54-13.2h0Zm-5.24-15.02l-8.87-25.3-8.87,25.3h17.74Z"></path></g></g></svg>