<?xml version="1.0" encoding="UTF-8" standalone="no"?>
<!-- Generator: Adobe Illustrator 19.2.0, SVG Export Plug-In . SVG Version: 6.00 Build 0)  -->

<svg
   xmlns:dc="http://purl.org/dc/elements/1.1/"
   xmlns:cc="http://creativecommons.org/ns#"
   xmlns:rdf="http://www.w3.org/1999/02/22-rdf-syntax-ns#"
   xmlns:svg="http://www.w3.org/2000/svg"
   xmlns="http://www.w3.org/2000/svg"
   xmlns:sodipodi="http://sodipodi.sourceforge.net/DTD/sodipodi-0.dtd"
   xmlns:inkscape="http://www.inkscape.org/namespaces/inkscape"
   version="1.1"
   id="Layer_5"
   x="0px"
   y="0px"
   viewBox="0 0 400 100"
   enable-background="new 0 0 792 612"
   xml:space="preserve"
   inkscape:version="0.91 r13725"
   sodipodi:docname="legis_logo_AMELIORÉ.svg"
   width="400"
   height="100"><metadata
     id="metadata5001"><rdf:RDF><cc:Work
         rdf:about=""><dc:format>image/svg+xml</dc:format><dc:type
           rdf:resource="http://purl.org/dc/dcmitype/StillImage" /><dc:title></dc:title></cc:Work></rdf:RDF></metadata><defs
     id="defs4999" /><sodipodi:namedview
     pagecolor="#ffffff"
     bordercolor="#666666"
     borderopacity="1"
     objecttolerance="10"
     gridtolerance="10"
     guidetolerance="10"
     inkscape:pageopacity="0"
     inkscape:pageshadow="2"
     inkscape:window-width="1920"
     inkscape:window-height="1018"
     id="namedview4997"
     showgrid="false"
     inkscape:zoom="0.38562092"
     inkscape:cx="-236.74576"
     inkscape:cy="306"
     inkscape:window-x="-8"
     inkscape:window-y="-8"
     inkscape:window-maximized="1"
     inkscape:current-layer="Layer_5" /><g
     id="g5543"
     transform="translate(-195.53463,-255.66841)"><g
       id="g4917"><path
         id="path4919"
         d="m 273.3,277.1 c -0.1,0.5 -0.6,1 -1.2,1 l -39.6,0 c -0.5,0 -0.9,-0.4 -0.8,-1 l 0,0 c 0.1,-0.5 0.6,-1 1.2,-1 l 39.6,0 c 0.5,0 0.9,0.4 0.8,1 l 0,0 z"
         inkscape:connector-curvature="0"
         style="fill:#375d9d" /><path
         id="path4921"
         d="m 268.6,304 c -0.1,0.5 -0.6,1 -1.2,1 l -39.6,0 c -0.6,0 -0.9,-0.4 -0.8,-1 l 0,0 c 0.1,-0.5 0.6,-1 1.2,-1 l 39.6,0 c 0.5,0 0.9,0.4 0.8,1 l 0,0 z"
         inkscape:connector-curvature="0"
         style="fill:#375d9d" /><path
         id="path4923"
         d="m 270.9,290.6 c -0.1,0.5 -0.6,1 -1.2,1 l -39.6,0 c -0.6,0 -0.9,-0.4 -0.8,-1 l 0,0 c 0.1,-0.5 0.6,-1 1.2,-1 l 39.6,0 c 0.6,-0.1 0.9,0.4 0.8,1 l 0,0 z"
         inkscape:connector-curvature="0"
         style="fill:#375d9d" /><path
         id="path4925"
         d="m 290.3,260.1 -53.6,0 c -1.1,0 -2.2,0.9 -2.3,2 l -1.4,8.1 c -0.2,1.1 0.6,2 1.7,2 l 41.6,0 c 1.1,0 1.8,0.9 1.7,2 l -7.9,44.8 3.9,5.6 0.9,1.2 1.4,2.1 3.4,4.9 L 292,262 c 0.1,-1 -0.6,-1.9 -1.7,-1.9 z"
         inkscape:connector-curvature="0"
         style="fill:#375d9d" /><path
         id="path4927"
         d="m 219.3,335.9 c -1.1,0 -1.8,-0.9 -1.7,-2 L 230.3,262 c 0.2,-1.1 -0.6,-2 -1.7,-2 l -8,0 c -1.1,0 -2.2,0.9 -2.3,2 l -14.7,84 c -0.2,1.1 0.6,2 1.7,2 l 32.3,0 0.7,-12 -19,0 z"
         inkscape:connector-curvature="0"
         style="fill:#375d9d" /><polygon
         id="polygon4929"
         points="248.2,335.9 247.5,347.9 251.5,347.9 252.2,335.9 "
         style="fill:#375d9d" /><polygon
         id="polygon4931"
         points="240.2,335.9 239.5,347.9 245.5,347.9 246.2,335.9 "
         style="fill:#375d9d" /><polygon
         id="polygon4933"
         points="256.3,335.9 254.2,335.9 253.5,347.9 255.6,347.9 "
         style="fill:#375d9d" /><path
         id="path4935"
         d="m 256.7,329.9 -33.1,0 c -0.6,0 -1.1,0.4 -1.2,1 l 0,0 c -0.1,0.5 0.3,1 0.8,1 l 33.4,0 0.1,-1.3 0,-0.7 z"
         inkscape:connector-curvature="0"
         style="fill:#375d9d" /><path
         id="path4937"
         d="m 225.8,316.5 c -0.5,0 -1.1,0.4 -1.2,1 l 0,0 c -0.1,0.5 0.3,1 0.8,1 l 31.9,0 0.1,-2 -31.6,0 z"
         inkscape:connector-curvature="0"
         style="fill:#375d9d" /><path
         id="path4939"
         d="m 272.4,346.6 c -1,0.4 -2.7,1.1 -3.7,1.5 l -7.5,3.1 c -1,0.4 -1.8,-0.1 -1.7,-1.2 l 0.9,-15 c 0.1,-1.1 0.2,-2.9 0.2,-4 l 0.9,-15 c 0.1,-1.1 0.6,-1.3 1.3,-0.4 l 7.8,11.1 c 0.6,0.9 1.7,2.4 2.3,3.3 l 7.8,11.1 c 0.6,0.9 0.3,2 -0.7,2.4 l -7.6,3.1 z"
         inkscape:connector-curvature="0"
         style="fill:#375d9d" /></g><g
       id="g4941"><g
         id="g4943"><path
           id="path4945"
           d="m 299.7,276.1 8.4,0 -5.3,27.1 14,0 -1.4,7.2 -22.4,0 6.7,-34.3 z"
           inkscape:connector-curvature="0" /><path
           id="path4947"
           d="m 333.7,285.1 c 7,0 10.6,4 10.6,9.7 0,2.3 -0.9,4.8 -0.9,4.8 l -15.6,0 c 0,2.8 1.8,4.4 4.8,4.4 3.6,0 7.3,-2.5 7.3,-2.5 l 2.1,6.2 c 0,0 -4.4,3.2 -10,3.2 -8.4,0 -12.6,-5 -12.6,-10.8 0,-8.5 6.1,-15 14.3,-15 z m 2.4,9.8 c 0,0 0,-0.6 0,-0.9 0,-1.5 -1,-2.7 -2.6,-2.7 -2.4,0 -3.9,1.6 -4.7,3.6 l 7.3,0 z m 0.6,-18.8 8.5,0 -7.1,7.2 -6.7,0 5.3,-7.2 z"
           inkscape:connector-curvature="0" /><path
           id="path4949"
           d="m 355.3,313.6 c 2.9,0 6,-1.1 6.6,-4.8 L 362,308 c 0,-0.3 0.2,-0.9 0.2,-0.9 l 0,0 c -1.6,1.7 -3.4,2.6 -6,2.6 -6.5,0 -9.6,-4.7 -9.6,-10.4 0,-6.9 4.8,-14.2 13.2,-14.2 2.3,0 5.1,0.6 6.6,2.6 l 0.1,0 c 0,0 0,-0.5 0.1,-0.8 l 0.2,-1.3 7.8,0 -4.5,22.9 c -1.8,9 -8.6,11.9 -14.8,11.9 -6.8,0 -10.2,-2.5 -10.2,-2.5 l 3.3,-6 c 0.1,0.1 2.5,1.7 6.9,1.7 z m 3.5,-10.8 c 3.6,0 5.7,-4 5.7,-7.2 0,-2.9 -1.9,-3.6 -4,-3.6 -3.5,0 -5.5,3 -5.5,6.6 0,2.3 1.1,4.2 3.8,4.2 z"
           inkscape:connector-curvature="0" /><path
           id="path4951"
           d="m 380.7,285.7 8.3,0 -4.8,24.7 -8.2,0 4.7,-24.7 z m 2,-9.6 8.1,0 -1.2,6.5 -8.1,0 1.2,-6.5 z"
           inkscape:connector-curvature="0" /><path
           id="path4953"
           d="m 393.3,302 c 0,0 2.5,2.2 6.2,2.2 1.3,0 2.7,-0.4 2.7,-1.2 0,-2.2 -9.8,-2.6 -9.8,-9.9 0,-4.8 5.1,-8 10.4,-8 6,0 9.3,2.8 9.3,2.8 l -3.6,5.7 c 0,0 -2.1,-1.8 -5.8,-1.8 -1.2,0 -2.7,0.4 -2.7,1.3 0,1.9 9.8,2.4 9.8,9.9 0,4.8 -4.2,8 -10.4,8 -6.1,0 -10.4,-3.6 -10.4,-3.6 l 4.3,-5.4 z"
           inkscape:connector-curvature="0" /><path
           id="path4955"
           d="m 435.8,276.1 c 8.7,0 14.6,6 14.6,14.2 0,5.9 -2.7,11.1 -6.7,14.8 l 3.3,4.1 -2.2,2 -3.3,-4.2 c -3.3,2.5 -7.2,4 -11.4,4 -8.8,0 -14.7,-6.1 -14.7,-14.6 0,-11 10,-20.3 20.4,-20.3 z m -5.7,31.7 c 3.4,0 6.6,-1.2 9.4,-3.3 l -3.4,-4.3 2.2,-2 3.4,4.4 c 3.1,-3.2 5.2,-7.5 5.2,-12.2 0,-6.6 -4.6,-11.2 -11.2,-11.2 -8.5,0 -16.8,7.7 -16.8,17.1 0,6.7 4.6,11.5 11.2,11.5 z"
           inkscape:connector-curvature="0" /><path
           id="path4957"
           d="m 455.3,301.5 2.9,-15.3 3.3,0 -2.8,14.4 c -0.2,1.2 -0.3,2.4 -0.3,3.3 0,2.3 0.9,4 4.2,4 5.4,0 9.9,-5.3 10.9,-10.6 l 2.2,-11.1 3.3,0 -4.7,24.1 -3.3,0 0.7,-3.5 c 0.2,-1.1 0.6,-2.3 0.6,-2.3 l -0.1,0 c -1.3,2.4 -5,6.3 -10.6,6.3 -3.6,0 -6.8,-1.6 -6.8,-6.2 0.1,-0.8 0.2,-1.9 0.5,-3.1 z"
           inkscape:connector-curvature="0" /><path
           id="path4959"
           d="m 496.6,285.7 c 6,0 8.8,3.7 8.8,8.7 0,1.9 -0.7,4.1 -0.7,4.1 l -18.5,0 c -0.1,0.7 -0.2,1.4 -0.2,2.1 0,4.1 2.6,7.5 7.7,7.5 4.4,0 7.9,-2.9 7.9,-2.9 l 1.1,2.7 c 0,0 -3.9,3.2 -9,3.2 -6.6,0 -11,-4.1 -11,-10.2 -0.1,-8 5.8,-15.2 13.9,-15.2 z m 5.3,10.1 c 0,0 0.1,-0.8 0.1,-1.7 0,-3.8 -2.4,-5.7 -5.5,-5.7 -4,0 -8.1,2.6 -9.8,7.4 l 15.2,0 z m -1.3,-19.2 4,0 -5.3,5.7 -3.2,0 4.5,-5.7 z"
           inkscape:connector-curvature="0" /><path
           id="path4961"
           d="m 515.2,276.6 3.3,0 -2.3,11.7 c -0.2,1.1 -0.6,2.2 -0.6,2.2 l 0.1,0 c 1.7,-2.8 5.1,-4.8 8.7,-4.8 5.7,0 8.9,3.7 8.9,9.7 0,9.2 -6.4,15.6 -13.2,15.6 -3.6,0 -6.5,-1.7 -7.6,-4.9 l -0.1,0 c 0,0 0,1 -0.2,2.2 l -0.4,2.2 -3.1,0 6.5,-33.9 z M 520,308 c 4.7,0 10,-4.7 10,-12.4 0,-4.3 -2.3,-7 -6.1,-7 -6,0 -9.9,6.4 -9.9,12.6 -0.1,3.7 1.7,6.8 6,6.8 z"
           inkscape:connector-curvature="0" /><path
           id="path4963"
           d="m 551.5,285.7 c 6,0 8.8,3.7 8.8,8.7 0,1.9 -0.7,4.1 -0.7,4.1 l -18.5,0 c -0.1,0.7 -0.2,1.4 -0.2,2.1 0,4.1 2.6,7.5 7.7,7.5 4.4,0 7.9,-2.9 7.9,-2.9 l 1.1,2.7 c 0,0 -3.9,3.2 -9,3.2 -6.6,0 -11,-4.1 -11,-10.2 -0.1,-8 5.8,-15.2 13.9,-15.2 z m 5.4,10.1 c 0,0 0.1,-0.8 0.1,-1.7 0,-3.8 -2.4,-5.7 -5.5,-5.7 -4,0 -8.1,2.6 -9.8,7.4 l 15.2,0 z"
           inkscape:connector-curvature="0" /><path
           id="path4965"
           d="m 578.8,285.7 c 6.1,0 8.7,3.5 8.7,3.5 l -2,2.2 c 0,0 -2.3,-2.7 -6.6,-2.7 -5.8,0 -11.6,4.9 -11.6,11.8 0,4.6 3.3,7.6 7.9,7.6 4.9,0 8.4,-3.4 8.4,-3.4 l 1,2.7 c 0,0 -3.8,3.6 -9.6,3.6 -6.6,0 -11.1,-4.1 -11.1,-10.3 0.1,-8.7 7.4,-15 14.9,-15 z"
           inkscape:connector-curvature="0" /></g><g
         id="g4967"><path
           id="path4969"
           d="m 288.3,340.2 c 0,0 1.4,1.8 4.2,1.8 2.3,0 4.5,-1.6 4.5,-4 0,-3.8 -7.1,-3.2 -7.1,-7.5 0,-2.4 2.4,-4.9 5.8,-4.9 2.8,0 4.2,1.5 4.2,1.5 L 299,328 c 0,0 -1.2,-1.3 -3.5,-1.3 -2.8,0 -4.7,2.1 -4.7,3.9 0,3.4 7.1,2.9 7.1,7.5 0,2.6 -2.4,5 -5.6,5 -3.4,0 -4.9,-2.1 -4.9,-2.1 l 0.9,-0.8 z"
           inkscape:connector-curvature="0" /><path
           id="path4971"
           d="m 308.2,330.4 c 3.2,0 5.3,2.2 5.3,5.1 0,4.1 -3.6,7.4 -7.3,7.4 -3.2,0 -5.3,-2.2 -5.3,-5.2 0,-4 3.6,-7.3 7.3,-7.3 z m -2,11.6 c 3.1,0 6.3,-2.9 6.3,-6.4 0,-2.4 -1.7,-4.2 -4.2,-4.2 -3.2,0 -6.3,2.9 -6.3,6.4 -0.1,2.4 1.6,4.2 4.2,4.2 z"
           inkscape:connector-curvature="0" /><path
           id="path4973"
           d="m 316.3,338.3 1.5,-7.6 1,0 -1.4,7.2 c -0.1,0.7 -0.2,1.3 -0.2,1.9 0,1.3 0.5,2.2 2.4,2.2 3,0 5.5,-2.9 6,-5.7 l 1.1,-5.6 1,0 -2.3,12 -1,0 0.4,-2 c 0.1,-0.6 0.3,-1.1 0.3,-1.1 l 0,0 c -0.6,1.2 -2.6,3.4 -5.6,3.4 -1.7,0 -3.3,-0.8 -3.3,-3 -0.1,-0.5 0,-1.1 0.1,-1.7 z"
           inkscape:connector-curvature="0" /><path
           id="path4975"
           d="m 331.9,330.7 1,0 -0.4,2.2 c -0.1,0.6 -0.3,1.1 -0.3,1.1 l 0,0 c 0.8,-1.7 2.4,-3.4 4.5,-3.4 0.2,0 0.5,0 0.7,0.1 l -0.2,1 c -0.2,0 -0.4,0 -0.5,0 -2.9,0 -4.7,4 -5.2,6.5 l -0.9,4.6 -1,0 2.3,-12.1 z"
           inkscape:connector-curvature="0" /><path
           id="path4977"
           d="m 345.1,330.4 c 3,0 4.2,1.7 4.2,1.7 l -0.7,0.7 c 0,0 -1.2,-1.5 -3.5,-1.5 -3,0 -6.3,2.6 -6.3,6.5 0,2.5 1.8,4.1 4.3,4.1 2.6,0 4.3,-1.7 4.3,-1.7 l 0.4,0.9 c 0,0 -1.8,1.8 -4.7,1.8 -3.1,0 -5.4,-1.9 -5.4,-5 0,-4.5 3.8,-7.5 7.4,-7.5 z"
           inkscape:connector-curvature="0" /><path
           id="path4979"
           d="m 357.9,330.4 c 2.9,0 4.2,1.8 4.2,4.2 0,0.9 -0.3,1.9 -0.3,1.9 l -9.6,0 c -0.1,0.5 -0.1,0.9 -0.1,1.3 0,2.3 1.4,4.2 4.2,4.2 2.3,0 4,-1.5 4,-1.5 l 0.4,0.9 c 0,0 -1.9,1.6 -4.4,1.6 -3.1,0 -5.3,-1.9 -5.3,-5 0,-3.8 2.9,-7.6 6.9,-7.6 z m 3,5.2 c 0,0 0.1,-0.5 0.1,-1 0,-2.2 -1.3,-3.2 -3.1,-3.2 -2.2,0 -4.5,1.4 -5.5,4.2 l 8.5,0 z"
           inkscape:connector-curvature="0" /><path
           id="path4981"
           d="m 378.4,330.4 c 3.2,0 5.3,2.2 5.3,5.1 0,4.1 -3.6,7.4 -7.3,7.4 -3.2,0 -5.3,-2.2 -5.3,-5.2 -0.1,-4 3.5,-7.3 7.3,-7.3 z m -2.1,11.6 c 3.1,0 6.3,-2.9 6.3,-6.4 0,-2.4 -1.7,-4.2 -4.2,-4.2 -3.2,0 -6.3,2.9 -6.3,6.4 0,2.4 1.7,4.2 4.2,4.2 z"
           inkscape:connector-curvature="0" /><path
           id="path4983"
           d="m 388.4,331.6 -1.5,0 0.2,-0.9 1.5,0 0.1,-0.6 c 0.8,-3.8 3.4,-4.3 4.5,-4.3 0.5,0 0.7,0 0.7,0 l -0.2,0.9 c 0,0 -0.2,0 -0.5,0 -1,0 -2.9,0.4 -3.5,3.5 l -0.1,0.5 6.4,0 0.1,-0.6 c 0.8,-3.8 3.4,-4.3 4.5,-4.3 0.5,0 0.7,0 0.7,0 l -0.2,0.9 c 0,0 -0.2,0 -0.5,0 -1,0 -2.9,0.4 -3.5,3.5 l -0.1,0.5 6.9,0 -2.4,12 -1,0 2.2,-11.1 -5.9,0 -2.2,11.1 -1,0 2.2,-11.1 -6.4,0 -2.2,11.1 -1,0 2.2,-11.1 z m 15.3,-5.7 1.2,0 -0.4,1.8 -1.2,0 0.4,-1.8 z"
           inkscape:connector-curvature="0" /><path
           id="path4985"
           d="m 413.3,330.4 c 3,0 4.2,1.7 4.2,1.7 l -0.7,0.7 c 0,0 -1.2,-1.5 -3.5,-1.5 -3,0 -6.3,2.6 -6.3,6.5 0,2.5 1.8,4.1 4.3,4.1 2.6,0 4.3,-1.7 4.3,-1.7 l 0.4,0.9 c 0,0 -1.8,1.8 -4.7,1.8 -3.1,0 -5.4,-1.9 -5.4,-5 0.1,-4.5 3.9,-7.5 7.4,-7.5 z"
           inkscape:connector-curvature="0" /><path
           id="path4987"
           d="m 421.4,330.7 1,0 -2.4,12 -1,0 2.4,-12 z m 0.8,-4.8 1.2,0 -0.4,1.8 -1.2,0 0.4,-1.8 z"
           inkscape:connector-curvature="0" /><path
           id="path4989"
           d="m 431.5,330.4 c 2.9,0 4.2,1.8 4.2,4.2 0,0.9 -0.3,1.9 -0.3,1.9 l -9.6,0 c -0.1,0.5 -0.1,0.9 -0.1,1.3 0,2.3 1.4,4.2 4.2,4.2 2.3,0 4,-1.5 4,-1.5 l 0.4,0.9 c 0,0 -1.9,1.6 -4.4,1.6 -3.1,0 -5.3,-1.9 -5.3,-5 -0.1,-3.8 2.8,-7.6 6.9,-7.6 z m 3,5.2 c 0,0 0.1,-0.5 0.1,-1 0,-2.2 -1.3,-3.2 -3.1,-3.2 -2.2,0 -4.5,1.4 -5.5,4.2 l 8.5,0 z"
           inkscape:connector-curvature="0" /><path
           id="path4991"
           d="m 438,340.2 2.8,-14.3 1,0 -2.8,14.1 c 0,0.3 -0.1,0.5 -0.1,0.7 0,1.1 0.7,1.2 1.2,1.2 0.2,0 0.3,0 0.3,0 l -0.2,0.9 c 0,0 -0.2,0 -0.4,0 -0.6,0 -1.9,-0.2 -1.9,-1.9 0,-0.2 0,-0.5 0.1,-0.7 z"
           inkscape:connector-curvature="0" /><path
           id="path4993"
           d="m 443.5,340.2 2.8,-14.3 1,0 -2.7,14.1 c 0,0.3 -0.1,0.5 -0.1,0.7 0,1.1 0.7,1.2 1.2,1.2 0.2,0 0.3,0 0.3,0 l -0.2,0.9 c 0,0 -0.2,0 -0.4,0 -0.6,0 -1.9,-0.2 -1.9,-1.9 0,-0.2 0,-0.5 0,-0.7 z"
           inkscape:connector-curvature="0" /><path
           id="path4995"
           d="m 455.9,330.4 c 2.9,0 4.2,1.8 4.2,4.2 0,0.9 -0.3,1.9 -0.3,1.9 l -9.6,0 c -0.1,0.5 -0.1,0.9 -0.1,1.3 0,2.3 1.4,4.2 4.2,4.2 2.3,0 4,-1.5 4,-1.5 l 0.4,0.9 c 0,0 -1.9,1.6 -4.4,1.6 -3.1,0 -5.3,-1.9 -5.3,-5 0,-3.8 2.9,-7.6 6.9,-7.6 z m 3,5.2 c 0,0 0.1,-0.5 0.1,-1 0,-2.2 -1.3,-3.2 -3.1,-3.2 -2.2,0 -4.5,1.4 -5.5,4.2 l 8.5,0 z"
           inkscape:connector-curvature="0" /></g></g></g></svg>