<svg width="500" height="500" viewBox="0 0 500 500" fill="none" xmlns="http://www.w3.org/2000/svg">
<g clip-path="url(#clip0_10109_58350)">
<path d="M279.338 492.057C260.994 502.648 238.394 502.648 220.051 492.057L54.8883 396.7C36.545 386.11 25.2451 366.538 25.2451 345.357L25.2451 154.643C25.2451 133.462 36.545 113.89 54.8883 103.3L220.051 7.9428C238.394 -2.64769 260.994 -2.64769 279.338 7.94281L444.5 103.3C462.844 113.89 474.144 133.462 474.144 154.643L474.144 345.357C474.144 366.538 462.844 386.11 444.5 396.7L279.338 492.057Z" fill="#F74E00"/>
<path fill-rule="evenodd" clip-rule="evenodd" d="M169.211 132.264C169.211 126.301 174.045 121.467 180.009 121.467H261.215C291.703 121.467 316.418 146.182 316.418 176.669C316.418 207.157 291.703 231.872 261.215 231.872H180.008C174.045 231.872 169.211 227.038 169.211 221.074V132.264ZM206.013 158.269H255.958C266.12 158.269 274.359 166.507 274.359 176.669C274.359 186.832 266.12 195.07 255.958 195.07H206.013V158.269Z" fill="white"/>
<path fill-rule="evenodd" clip-rule="evenodd" d="M169.211 276.142C169.211 269.114 174.908 263.416 181.937 263.416H287.502C317.99 263.416 342.705 288.131 342.705 318.619C342.705 349.106 317.99 373.821 287.502 373.821H181.937C174.908 373.821 169.211 368.124 169.211 361.096V276.142ZM206.013 300.218H287.502C297.665 300.218 305.903 308.456 305.903 318.619C305.903 328.781 297.665 337.02 287.502 337.02H206.013V300.218Z" fill="white"/>
</g>
<defs>
<clipPath id="clip0_10109_58350">
<rect width="500" height="500" fill="white"/>
</clipPath>
</defs>
</svg>
