<svg width="500" height="171" viewBox="0 0 500 171" fill="none" xmlns="http://www.w3.org/2000/svg">
<path fill-rule="evenodd" clip-rule="evenodd" d="M360.019 91.9454C356.85 88.2066 351.908 85.4146 344.338 84.6127C342.889 84.4581 341.349 84.3808 339.71 84.3808H321.095L352.387 53.2175L333.071 53.1885L307.552 77.9949C301.863 83.6595 298.668 91.34 298.668 99.3522V108.54C298.668 114.159 299.829 120.33 303.781 125.015C306.953 128.757 311.901 131.546 319.462 132.345H340.971C349.79 132.345 356.368 129.62 360.41 124.461C363.518 120.507 365.132 115.109 365.132 108.418C365.132 102.798 363.974 96.631 360.019 91.9454ZM349.512 109.751C349.512 114.781 346.708 117.435 341.382 117.435L321.089 117.502C317.37 117.515 314.307 114.543 314.291 110.842V105.171C314.291 100.138 317.098 97.4844 322.418 97.4844L342.714 97.4168C346.43 97.4039 349.496 100.376 349.512 104.08V109.751Z" fill="#F74E00"/>
<path d="M289.862 85.1792C289.173 88.0066 288.006 90.7407 286.149 93.1173C288.067 95.5712 289.251 98.4084 289.93 101.342C290.506 103.796 290.722 106.321 290.722 108.733C290.722 123.872 282.324 132.209 267.079 132.209H231.354L240.066 115.515H267.509C272.554 115.515 275.106 113.077 275.106 108.279C275.106 105.657 274.462 102.318 269.504 101.339H247.045L255.592 84.6832L270.481 84.6478C274.549 83.4337 275.106 80.3808 275.106 77.943C275.106 73.1447 272.554 69.9082 267.509 69.9082H243.203L233.734 53.4329L267.079 54.0158C282.324 54.0158 290.722 62.3533 290.722 77.4922C290.722 80.0073 290.489 82.6351 289.862 85.1792Z" fill="#F74E00"/>
<path fill-rule="evenodd" clip-rule="evenodd" d="M437.5 75.5047C437.525 75.9588 437.535 76.4064 437.535 76.867V107.499H437.525C437.535 107.786 437.535 108.066 437.535 108.339C437.535 116.667 435.016 122.947 430.236 126.914C426.252 130.264 420.696 131.999 413.72 131.999H396.888C396.672 131.999 396.456 131.996 396.24 131.993L396.238 131.993C395.879 131.99 395.526 131.977 395.177 131.964C395.101 131.96 395.027 131.956 394.953 131.952L394.815 131.945C394.703 131.94 394.591 131.933 394.479 131.926C394.423 131.922 394.366 131.919 394.31 131.916C393.98 131.893 393.657 131.867 393.337 131.838C393.324 131.835 393.311 131.835 393.298 131.832C393.14 131.816 392.984 131.8 392.829 131.784C389.666 131.442 386.856 130.679 384.421 129.51C384.259 129.433 384.097 129.352 383.939 129.272C383.548 129.072 383.169 128.863 382.801 128.641C382.649 128.55 382.5 128.46 382.351 128.367C382.309 128.338 382.267 128.312 382.228 128.286C382.092 128.199 381.96 128.109 381.827 128.019C381.767 127.978 381.706 127.936 381.646 127.894C381.574 127.844 381.503 127.793 381.433 127.742C381.358 127.691 381.287 127.636 381.213 127.581C381.182 127.558 381.15 127.534 381.119 127.511C381.055 127.463 380.992 127.416 380.931 127.369C380.741 127.22 380.553 127.069 380.369 126.914C375.586 122.947 373.066 116.667 373.066 108.339C373.066 107.978 373.075 107.617 373.085 107.242L373.086 107.193V75.9395C373.086 75.7914 373.092 75.6529 373.102 75.5047C373.167 73.5146 373.383 71.65 373.755 69.911C374.816 64.8647 377.128 60.9037 380.595 58.102C384.55 54.8848 390.038 53.2167 396.888 53.2167H413.72C420.573 53.2167 426.045 54.8848 430.016 58.1116C434.67 61.8666 437.247 67.7405 437.5 75.5047ZM421.773 107.109H421.799V77.3275C421.799 76.9281 421.783 76.5578 421.747 76.1907C421.369 72.1105 418.814 70.0301 414.144 70.0301H396.458C391.801 70.0301 389.246 72.1105 388.861 76.1907C388.829 76.5578 388.809 76.9281 388.809 77.3275V107.109H388.835C388.819 107.38 388.809 107.637 388.809 107.889C388.809 110.842 389.77 112.906 391.675 114.062C391.752 114.114 391.83 114.159 391.907 114.197C392.063 114.287 392.228 114.368 392.396 114.442C392.454 114.468 392.512 114.494 392.574 114.516C392.706 114.571 392.842 114.622 392.981 114.671C393.018 114.684 393.055 114.696 393.093 114.708C393.129 114.72 393.165 114.731 393.201 114.742L393.202 114.742C393.295 114.771 393.389 114.8 393.486 114.825C393.602 114.854 393.718 114.883 393.841 114.912C393.856 114.916 393.87 114.919 393.884 114.922C393.896 114.925 393.907 114.927 393.919 114.928C394.016 114.951 394.116 114.97 394.22 114.986C394.485 115.038 394.76 115.076 395.048 115.105C395.103 115.112 395.158 115.118 395.216 115.122C395.319 115.131 395.426 115.141 395.536 115.147C395.672 115.157 395.811 115.163 395.953 115.167C395.972 115.17 395.992 115.17 396.011 115.17C396.114 115.172 396.217 115.174 396.323 115.176C396.367 115.176 396.412 115.176 396.458 115.176H414.144C419.231 115.176 421.799 112.722 421.799 107.889C421.799 107.637 421.792 107.38 421.773 107.109Z" fill="#F74E00"/>
<path fill-rule="evenodd" clip-rule="evenodd" d="M62.9486 85.9276L62.9519 115.748L62.9518 115.753C62.9518 124.918 70.5192 132.347 79.8524 132.347H128.507C144.305 132.347 153.011 123.852 153.011 108.417C153.011 97.4547 148.541 84.3801 127.236 84.3801H110.432C102.383 84.3801 101.455 80.2548 101.455 77.1472C101.455 72.3488 104.042 69.911 109.158 69.911H161.021V132.344H178.181V114.278H194.987C218.404 114.278 230.667 100.595 230.667 83.7457C230.667 66.8903 218.404 53.2167 195.11 53.2167H109.592C104.178 53.2167 99.615 54.2376 95.9736 56.2181C89.2082 59.8893 85.612 66.8549 85.612 76.6931C85.612 84.1579 87.7173 92.6145 95.9736 97.1005C99.6182 99.081 104.466 100.289 110.863 100.289H127.543C136.171 100.289 137.174 104.668 137.174 107.969C137.174 112.999 134.328 115.653 128.931 115.653L80.1079 115.727V53.0381H63.0327L62.9486 53.1894L40.0976 92.6001L17.1625 53.0381H0V132.165H17.1625V85.7827L40.0976 125.341L62.9486 85.9276ZM195.841 99.622H178.181V69.911H195.961C206.015 69.911 212.648 75.9685 212.648 84.7665C212.648 93.5549 206.015 99.622 195.841 99.622Z" fill="#12429D"/>
<path d="M391.788 39.2185C392.226 35.371 393.474 31.7671 395.359 28.579C396.09 27.3422 396.917 26.168 397.83 25.0664C402.846 19.0134 410.451 15.1531 418.965 15.1531C433.015 15.1531 444.59 25.6664 446.139 39.1982C467.142 39.8116 483.979 56.9011 483.979 77.893C483.979 97.9808 468.562 114.495 448.829 116.418C447.803 121.908 445.692 127.047 442.226 131.405C443.135 131.45 444.05 131.473 444.97 131.473C474.788 131.473 498.961 107.484 498.961 77.893C498.961 52.7366 481.494 31.6327 457.935 25.8691C451.49 10.8272 436.475 0.285156 418.965 0.285156C403.845 0.285156 390.585 8.14568 383.097 19.9765C382.209 19.9017 381.311 19.8636 380.405 19.8636C371.052 19.8636 362.648 23.8999 356.867 30.3132L367.492 40.8576C369.908 37.8897 373.342 35.7715 377.266 35.0257C378.283 34.8326 379.332 34.7315 380.405 34.7315C383.023 34.7315 385.5 35.3335 387.702 36.4057C389.206 37.138 390.582 38.0896 391.788 39.2185Z" fill="#F74E00"/>
<path d="M18.452 169.234L18.4237 154.654L11.2786 166.804H9.97944L2.83426 154.74V169.234H0.123047V149.222H2.43888L10.6855 163.288L18.8191 149.222H21.135L21.1632 169.234H18.452Z" fill="#666666"/>
<path d="M39.692 164.231H29.1861L27.0115 169.234H24.1026L33.0552 149.222H35.8511L44.832 169.234H41.8667L39.692 164.231ZM38.7036 161.944L34.4391 152.138L30.1745 161.944H38.7036Z" fill="#666666"/>
<path d="M64.7827 149.222V169.234H62.4668L50.6053 154.311V169.234H47.7811V149.222H50.0969L61.9585 164.146V149.222H64.7827Z" fill="#666666"/>
<path d="M83.2958 164.231H72.7899L70.6153 169.234H67.7064L76.659 149.222H79.455L88.4359 169.234H85.4705L83.2958 164.231ZM82.3074 161.944L78.0429 152.138L73.7783 161.944H82.3074Z" fill="#666666"/>
<path d="M104.806 159.114H107.518V166.919C106.539 167.738 105.399 168.367 104.1 168.806C102.801 169.244 101.446 169.463 100.034 169.463C98.0378 169.463 96.2397 169.025 94.6393 168.148C93.039 167.252 91.7775 166.032 90.8549 164.489C89.9512 162.926 89.4993 161.172 89.4993 159.228C89.4993 157.284 89.9512 155.531 90.8549 153.968C91.7775 152.405 93.039 151.185 94.6393 150.308C96.2585 149.432 98.0754 148.993 100.09 148.993C101.672 148.993 103.102 149.26 104.383 149.794C105.682 150.308 106.783 151.071 107.687 152.081L105.936 153.853C104.355 152.31 102.443 151.538 100.203 151.538C98.6968 151.538 97.3411 151.871 96.1362 152.538C94.95 153.186 94.018 154.101 93.3402 155.283C92.6624 156.445 92.3235 157.761 92.3235 159.228C92.3235 160.677 92.6624 161.992 93.3402 163.173C94.018 164.336 94.95 165.251 96.1362 165.918C97.3411 166.585 98.6873 166.919 100.175 166.919C101.945 166.919 103.488 166.49 104.806 165.632V159.114Z" fill="#666666"/>
<path d="M127.272 166.747V169.234H112.925V149.222H126.876V151.709H115.749V157.856H125.662V160.286H115.749V166.747H127.272Z" fill="#666666"/>
<path d="M132.375 169.406C131.847 169.406 131.396 169.225 131.019 168.863C130.642 168.482 130.454 168.005 130.454 167.433C130.454 166.881 130.642 166.423 131.019 166.061C131.396 165.68 131.847 165.489 132.375 165.489C132.902 165.489 133.344 165.67 133.702 166.032C134.06 166.395 134.239 166.861 134.239 167.433C134.239 168.005 134.05 168.482 133.674 168.863C133.316 169.225 132.883 169.406 132.375 169.406Z" fill="#666666"/>
<path d="M151.865 169.463C150.377 169.463 148.937 169.234 147.544 168.777C146.169 168.3 145.087 167.691 144.296 166.947L145.341 164.717C146.094 165.403 147.054 165.966 148.222 166.404C149.408 166.823 150.622 167.033 151.865 167.033C153.503 167.033 154.727 166.757 155.536 166.204C156.346 165.632 156.751 164.879 156.751 163.945C156.751 163.259 156.525 162.707 156.073 162.287C155.64 161.849 155.094 161.515 154.435 161.287C153.795 161.058 152.881 160.801 151.695 160.515C150.208 160.153 149.003 159.79 148.08 159.428C147.177 159.066 146.395 158.513 145.736 157.77C145.096 157.008 144.776 155.988 144.776 154.711C144.776 153.644 145.049 152.681 145.595 151.824C146.16 150.966 147.007 150.28 148.137 149.765C149.267 149.25 150.669 148.993 152.345 148.993C153.512 148.993 154.661 149.146 155.79 149.451C156.92 149.756 157.89 150.194 158.699 150.766L157.767 153.053C156.939 152.519 156.054 152.119 155.113 151.852C154.171 151.566 153.249 151.423 152.345 151.423C150.744 151.423 149.54 151.719 148.73 152.31C147.939 152.9 147.544 153.663 147.544 154.597C147.544 155.283 147.77 155.845 148.222 156.283C148.673 156.703 149.229 157.036 149.888 157.284C150.566 157.513 151.479 157.761 152.627 158.027C154.115 158.39 155.31 158.752 156.214 159.114C157.118 159.476 157.89 160.029 158.53 160.772C159.189 161.515 159.518 162.516 159.518 163.774C159.518 164.822 159.236 165.785 158.671 166.661C158.106 167.519 157.25 168.205 156.101 168.72C154.953 169.215 153.54 169.463 151.865 169.463Z" fill="#666666"/>
<path d="M171.834 169.463C169.198 169.463 167.146 168.701 165.678 167.176C164.209 165.651 163.475 163.459 163.475 160.6V149.222H166.299V160.486C166.299 164.774 168.154 166.919 171.863 166.919C173.67 166.919 175.054 166.395 176.014 165.346C176.974 164.279 177.454 162.659 177.454 160.486V149.222H180.194V160.6C180.194 163.478 179.46 165.68 177.991 167.205C176.522 168.71 174.47 169.463 171.834 169.463Z" fill="#666666"/>
<path d="M193.694 149.222C196.255 149.222 198.269 149.841 199.738 151.08C201.206 152.319 201.941 154.025 201.941 156.198C201.941 158.37 201.206 160.076 199.738 161.315C198.269 162.554 196.255 163.173 193.694 163.173H188.808V169.234H185.984V149.222H193.694ZM193.609 160.686C195.398 160.686 196.763 160.305 197.704 159.543C198.646 158.761 199.116 157.646 199.116 156.198C199.116 154.749 198.646 153.644 197.704 152.881C196.763 152.1 195.398 151.709 193.609 151.709H188.808V160.686H193.609Z" fill="#666666"/>
<path d="M213.8 149.222C216.36 149.222 218.375 149.841 219.843 151.08C221.312 152.319 222.046 154.025 222.046 156.198C222.046 158.37 221.312 160.076 219.843 161.315C218.375 162.554 216.36 163.173 213.8 163.173H208.914V169.234H206.09V149.222H213.8ZM213.715 160.686C215.504 160.686 216.869 160.305 217.81 159.543C218.751 158.761 219.222 157.646 219.222 156.198C219.222 154.749 218.751 153.644 217.81 152.881C216.869 152.1 215.504 151.709 213.715 151.709H208.914V160.686H213.715Z" fill="#666666"/>
<path d="M235.396 169.463C233.4 169.463 231.602 169.025 230.001 168.148C228.401 167.252 227.14 166.023 226.217 164.46C225.313 162.897 224.861 161.153 224.861 159.228C224.861 157.303 225.313 155.559 226.217 153.996C227.14 152.433 228.401 151.214 230.001 150.337C231.602 149.441 233.4 148.993 235.396 148.993C237.373 148.993 239.161 149.441 240.762 150.337C242.362 151.214 243.614 152.433 244.518 153.996C245.421 155.54 245.873 157.284 245.873 159.228C245.873 161.172 245.421 162.926 244.518 164.489C243.614 166.032 242.362 167.252 240.762 168.148C239.161 169.025 237.373 169.463 235.396 169.463ZM235.396 166.919C236.845 166.919 238.144 166.585 239.293 165.918C240.46 165.251 241.373 164.336 242.032 163.173C242.71 161.992 243.049 160.677 243.049 159.228C243.049 157.78 242.71 156.474 242.032 155.311C241.373 154.13 240.46 153.205 239.293 152.538C238.144 151.871 236.845 151.538 235.396 151.538C233.946 151.538 232.628 151.871 231.442 152.538C230.274 153.205 229.352 154.13 228.674 155.311C228.015 156.474 227.686 157.78 227.686 159.228C227.686 160.677 228.015 161.992 228.674 163.173C229.352 164.336 230.274 165.251 231.442 165.918C232.628 166.585 233.946 166.919 235.396 166.919Z" fill="#666666"/>
<path d="M263.407 169.234L259.143 163.088C258.615 163.126 258.201 163.145 257.9 163.145H253.014V169.234H250.19V149.222H257.9C260.461 149.222 262.475 149.841 263.944 151.08C265.412 152.319 266.147 154.025 266.147 156.198C266.147 157.741 265.77 159.057 265.017 160.143C264.264 161.229 263.191 162.02 261.797 162.516L266.485 169.234H263.407ZM257.815 160.715C259.604 160.715 260.969 160.324 261.91 159.543C262.852 158.761 263.322 157.646 263.322 156.198C263.322 154.749 262.852 153.644 261.91 152.881C260.969 152.1 259.604 151.709 257.815 151.709H253.014V160.715H257.815Z" fill="#666666"/>
<path d="M274.359 151.709H267.581V149.222H283.933V151.709H277.155V169.234H274.359V151.709Z" fill="#666666"/>
<path d="M286.353 169.406C285.826 169.406 285.374 169.225 284.998 168.863C284.621 168.482 284.433 168.005 284.433 167.433C284.433 166.881 284.621 166.423 284.998 166.061C285.374 165.68 285.826 165.489 286.353 165.489C286.88 165.489 287.323 165.67 287.68 166.032C288.038 166.395 288.217 166.861 288.217 167.433C288.217 168.005 288.029 168.482 287.652 168.863C287.295 169.225 286.861 169.406 286.353 169.406Z" fill="#666666"/>
<path d="M307.792 149.222C310.353 149.222 312.367 149.841 313.836 151.08C315.304 152.319 316.039 154.025 316.039 156.198C316.039 158.37 315.304 160.076 313.836 161.315C312.367 162.554 310.353 163.173 307.792 163.173H302.906V169.234H300.082V149.222H307.792ZM307.707 160.686C309.496 160.686 310.861 160.305 311.802 159.543C312.744 158.761 313.214 157.646 313.214 156.198C313.214 154.749 312.744 153.644 311.802 152.881C310.861 152.1 309.496 151.709 307.707 151.709H302.906V160.686H307.707Z" fill="#666666"/>
<path d="M333.405 169.234L329.14 163.088C328.613 163.126 328.199 163.145 327.898 163.145H323.012V169.234H320.188V149.222H327.898C330.458 149.222 332.473 149.841 333.941 151.08C335.41 152.319 336.144 154.025 336.144 156.198C336.144 157.741 335.768 159.057 335.015 160.143C334.262 161.229 333.188 162.02 331.795 162.516L336.483 169.234H333.405ZM327.813 160.715C329.602 160.715 330.967 160.324 331.908 159.543C332.849 158.761 333.32 157.646 333.32 156.198C333.32 154.749 332.849 153.644 331.908 152.881C330.967 152.1 329.602 151.709 327.813 151.709H323.012V160.715H327.813Z" fill="#666666"/>
<path d="M349.632 169.463C347.636 169.463 345.838 169.025 344.237 168.148C342.637 167.252 341.376 166.023 340.453 164.46C339.549 162.897 339.097 161.153 339.097 159.228C339.097 157.303 339.549 155.559 340.453 153.996C341.376 152.433 342.637 151.214 344.237 150.337C345.838 149.441 347.636 148.993 349.632 148.993C351.608 148.993 353.397 149.441 354.998 150.337C356.598 151.214 357.85 152.433 358.754 153.996C359.657 155.54 360.109 157.284 360.109 159.228C360.109 161.172 359.657 162.926 358.754 164.489C357.85 166.032 356.598 167.252 354.998 168.148C353.397 169.025 351.608 169.463 349.632 169.463ZM349.632 166.919C351.081 166.919 352.38 166.585 353.529 165.918C354.696 165.251 355.609 164.336 356.268 163.173C356.946 161.992 357.285 160.677 357.285 159.228C357.285 157.78 356.946 156.474 356.268 155.311C355.609 154.13 354.696 153.205 353.529 152.538C352.38 151.871 351.081 151.538 349.632 151.538C348.182 151.538 346.864 151.871 345.678 152.538C344.51 153.205 343.588 154.13 342.91 155.311C342.251 156.474 341.922 157.78 341.922 159.228C341.922 160.677 342.251 161.992 342.91 163.173C343.588 164.336 344.51 165.251 345.678 165.918C346.864 166.585 348.182 166.919 349.632 166.919Z" fill="#666666"/>
<path d="M368.076 151.709H361.298V149.222H377.65V151.709H370.872V169.234H368.076V151.709Z" fill="#666666"/>
<path d="M395.072 166.747V169.234H380.726V149.222H394.677V151.709H383.55V157.856H393.463V160.286H383.55V166.747H395.072Z" fill="#666666"/>
<path d="M408.402 169.463C406.425 169.463 404.637 169.025 403.036 168.148C401.455 167.252 400.212 166.032 399.308 164.489C398.405 162.926 397.953 161.172 397.953 159.228C397.953 157.284 398.405 155.54 399.308 153.996C400.212 152.433 401.464 151.214 403.065 150.337C404.665 149.441 406.454 148.993 408.431 148.993C409.974 148.993 411.387 149.26 412.667 149.794C413.947 150.308 415.039 151.08 415.943 152.109L414.107 153.911C412.62 152.329 410.765 151.538 408.544 151.538C407.075 151.538 405.748 151.871 404.561 152.538C403.375 153.205 402.443 154.13 401.766 155.311C401.107 156.474 400.777 157.78 400.777 159.228C400.777 160.677 401.107 161.992 401.766 163.173C402.443 164.336 403.375 165.251 404.561 165.918C405.748 166.585 407.075 166.919 408.544 166.919C410.746 166.919 412.601 166.118 414.107 164.517L415.943 166.318C415.039 167.348 413.938 168.129 412.639 168.663C411.358 169.196 409.946 169.463 408.402 169.463Z" fill="#666666"/>
<path d="M423.677 151.709H416.899V149.222H433.251V151.709H426.473V169.234H423.677V151.709Z" fill="#666666"/>
<path d="M435.671 169.406C435.143 169.406 434.692 169.225 434.315 168.863C433.939 168.482 433.75 168.005 433.75 167.433C433.75 166.881 433.939 166.423 434.315 166.061C434.692 165.68 435.143 165.489 435.671 165.489C436.198 165.489 436.64 165.67 436.998 166.032C437.356 166.395 437.535 166.861 437.535 167.433C437.535 168.005 437.346 168.482 436.97 168.863C436.612 169.225 436.179 169.406 435.671 169.406Z" fill="#666666"/>
</svg>
