<svg xmlns:xlink="http://www.w3.org/1999/xlink" aria-hidden="true" focusable="false" data-prefix="fas" data-icon="terminal" class="svg-inline--fa fa-terminal fa-w-18 fa-fw  css-jsh9fm eu2udwo7" role="img" xmlns="http://www.w3.org/2000/svg" viewBox="0 0 576 512" width="576"  height="512" ><path fill="#337AB7" d="M9.4 86.6C-3.1 74.1-3.1 53.9 9.4 41.4s32.8-12.5 45.3 0l192 192c12.5 12.5 12.5 32.8 0 45.3l-192 192c-12.5 12.5-32.8 12.5-45.3 0s-12.5-32.8 0-45.3L178.7 256 9.4 86.6zM256 416H544c17.7 0 32 14.3 32 32s-14.3 32-32 32H256c-17.7 0-32-14.3-32-32s14.3-32 32-32z"></path></svg>