<svg width="512" height="512" viewBox="0 0 512 512" fill="none" xmlns="http://www.w3.org/2000/svg">
<g clip-path="url(#clip0_4_6)">
<path d="M63.7151 164.832C63.7151 144.12 80.5262 127.332 101.261 127.332H314.006V343.998C314.006 357.804 302.801 369 288.976 369H113.77C86.1259 369 63.7151 346.614 63.7151 319.002V164.832Z" fill="url(#paint0_radial_4_6)"/>
<path d="M63.7151 164.832C63.7151 144.12 80.5262 127.332 101.261 127.332H314.006V343.998C314.006 357.804 302.801 369 288.976 369H113.77C86.1259 369 63.7151 346.614 63.7151 319.002V164.832Z" fill="url(#paint1_radial_4_6)" fill-opacity="0.7"/>
<path d="M63.7151 206.502C63.7151 185.79 80.5262 169.002 101.261 169.002H213.891C200.066 169.002 188.861 180.198 188.861 194.004V244.002C188.861 257.808 177.655 269.004 163.83 269.004H113.776C86.1319 269.004 63.7212 291.39 63.7212 319.002V206.502H63.7151Z" fill="url(#paint2_linear_4_6)"/>
<path d="M63.7151 206.502C63.7151 185.79 80.5262 169.002 101.261 169.002H213.891C200.066 169.002 188.861 180.198 188.861 194.004V244.002C188.861 257.808 177.655 269.004 163.83 269.004H113.776C86.1319 269.004 63.7212 291.39 63.7212 319.002V206.502H63.7151Z" fill="url(#paint3_linear_4_6)" fill-opacity="0.3"/>
<path d="M63.7151 118.998C63.7151 91.386 86.1259 69 113.77 69H213.885V169.002H113.77C86.1259 169.002 63.7151 191.388 63.7151 219V118.998Z" fill="url(#paint4_linear_4_6)"/>
<path d="M63.7151 118.998C63.7151 91.386 86.1259 69 113.77 69H213.885V169.002H113.77C86.1259 169.002 63.7151 191.388 63.7151 219V118.998Z" fill="url(#paint5_radial_4_6)"/>
<path d="M63.7151 118.998C63.7151 91.386 86.1259 69 113.77 69H213.885V169.002H113.77C86.1259 169.002 63.7151 191.388 63.7151 219V118.998Z" fill="url(#paint6_linear_4_6)"/>
<path d="M288.97 69H213.885C200.061 69 188.855 80.1911 188.855 93.996V144.006C188.855 157.811 200.061 169.002 213.885 169.002H288.97C302.794 169.002 314 157.811 314 144.006V93.996C314 80.1911 302.794 69 288.97 69Z" fill="url(#paint7_radial_4_6)"/>
<path d="M128.37 210.666H49.1151C34.1399 210.666 22 222.789 22 237.744V316.92C22 331.875 34.1399 343.998 49.1151 343.998H128.37C143.345 343.998 155.485 331.875 155.485 316.92V237.744C155.485 222.789 143.345 210.666 128.37 210.666Z" fill="url(#paint8_radial_4_6)"/>
<path d="M128.37 210.666H49.1151C34.1399 210.666 22 222.789 22 237.744V316.92C22 331.875 34.1399 343.998 49.1151 343.998H128.37C143.345 343.998 155.485 331.875 155.485 316.92V237.744C155.485 222.789 143.345 210.666 128.37 210.666Z" fill="url(#paint9_radial_4_6)" fill-opacity="0.3"/>
<path d="M123.827 315.426H103.249L90.3316 291.144C89.869 290.292 89.5145 289.62 89.2682 289.122C89.0579 288.594 88.8235 287.988 88.5772 287.316H88.3669C88.0485 288.168 87.7481 288.858 87.4657 289.386C87.1833 289.92 86.8468 290.574 86.4563 291.354L73.058 315.42H53.6514L76.9393 277.272L55.2496 239.232H75.5574L87.0391 260.91C87.5017 261.798 87.8923 262.578 88.2107 263.25C88.5652 263.886 88.9197 264.648 89.2742 265.536H89.4845C89.9771 264.51 90.3677 263.694 90.6561 263.094C90.9745 262.494 91.4011 261.696 91.9298 260.706L103.838 239.244H123.191L101.182 276.702L123.834 315.432L123.827 315.426Z" fill="white"/>
</g>
<g clip-path="url(#clip1_4_6)">
<path d="M187.715 368.75L304.515 226.334L438 318.878V413.834C438 429.944 424.926 443 408.8 443H237.77C210.126 443 187.715 420.614 187.715 393.002V368.75Z" fill="url(#paint10_radial_4_6)"/>
<path d="M187.715 268.322C187.715 247.61 204.526 230.822 225.261 230.822H395.36L438 209.666V313.832C438 329.942 424.926 342.998 408.8 342.998H237.77C210.126 342.998 187.715 365.384 187.715 392.996V268.316V268.322Z" fill="url(#paint11_linear_4_6)"/>
<path d="M187.715 268.322C187.715 247.61 204.526 230.822 225.261 230.822H395.36L438 209.666V313.832C438 329.942 424.926 342.998 408.8 342.998H237.77C210.126 342.998 187.715 365.384 187.715 392.996V268.316V268.322Z" fill="url(#paint12_radial_4_6)" fill-opacity="0.6"/>
<path d="M187.715 268.322C187.715 247.61 204.526 230.822 225.261 230.822H395.36L438 209.666V313.832C438 329.942 424.926 342.998 408.8 342.998H237.77C210.126 342.998 187.715 365.384 187.715 392.996V268.316V268.322Z" fill="url(#paint13_radial_4_6)" fill-opacity="0.1"/>
<path d="M187.715 192.998C187.715 165.386 210.126 143 237.77 143H408.8C424.926 143 438 156.056 438 172.166V213.83C438 229.94 424.926 242.996 408.8 242.996H237.77C210.126 242.996 187.715 265.382 187.715 292.994V192.998Z" fill="url(#paint14_linear_4_6)"/>
<path d="M187.715 192.998C187.715 165.386 210.126 143 237.77 143H408.8C424.926 143 438 156.056 438 172.166V213.83C438 229.94 424.926 242.996 408.8 242.996H237.77C210.126 242.996 187.715 265.382 187.715 292.994V192.998Z" fill="url(#paint15_radial_4_6)" fill-opacity="0.8"/>
<path d="M252.37 284.666H173.115C158.14 284.666 146 296.789 146 311.744V390.92C146 405.875 158.14 417.998 173.115 417.998H252.37C267.345 417.998 279.485 405.875 279.485 390.92V311.744C279.485 296.789 267.345 284.666 252.37 284.666Z" fill="url(#paint16_radial_4_6)"/>
<path d="M252.37 284.666H173.115C158.14 284.666 146 296.789 146 311.744V390.92C146 405.875 158.14 417.998 173.115 417.998H252.37C267.345 417.998 279.485 405.875 279.485 390.92V311.744C279.485 296.789 267.345 284.666 252.37 284.666Z" fill="url(#paint17_radial_4_6)" fill-opacity="0.65"/>
<path d="M258.51 313.238L242.084 389.42L222.443 389.432L212.745 343.718L202.592 389.432H182.764L166.975 313.25H183.167L192.906 363.524L202.586 313.25H222.437L232.573 363.524L242.078 313.25L258.504 313.238H258.51Z" fill="white"/>
</g>
<defs>
<radialGradient id="paint0_radial_4_6" cx="0" cy="0" r="1" gradientTransform="matrix(-236.392 -248.417 -192.981 183.137 312.418 385.638)" gradientUnits="userSpaceOnUse">
<stop offset="0.06" stop-color="#379539"/>
<stop offset="0.42" stop-color="#297C2D"/>
<stop offset="0.7" stop-color="#15561C"/>
</radialGradient>
<radialGradient id="paint1_radial_4_6" cx="0" cy="0" r="1" gradientTransform="matrix(-99.9459 -96.5192 -74.7802 77.2231 138.451 214.291)" gradientUnits="userSpaceOnUse">
<stop stop-color="#073B10"/>
<stop offset="0.99" stop-color="#084A13" stop-opacity="0"/>
</radialGradient>
<linearGradient id="paint2_linear_4_6" x1="63.7151" y1="244.002" x2="178.719" y2="244.002" gradientUnits="userSpaceOnUse">
<stop stop-color="#52D17C"/>
<stop offset="0.33" stop-color="#4AA647"/>
</linearGradient>
<linearGradient id="paint3_linear_4_6" x1="138.8" y1="169.002" x2="138.8" y2="273.192" gradientUnits="userSpaceOnUse">
<stop stop-color="#29852F"/>
<stop offset="0.5" stop-color="#4AA647" stop-opacity="0"/>
</linearGradient>
<linearGradient id="paint4_linear_4_6" x1="70.3602" y1="191.868" x2="208.963" y2="71.4879" gradientUnits="userSpaceOnUse">
<stop stop-color="#66D052"/>
<stop offset="1" stop-color="#85E972"/>
</linearGradient>
<radialGradient id="paint5_radial_4_6" cx="0" cy="0" r="1" gradientUnits="userSpaceOnUse" gradientTransform="translate(210.101 130.865) rotate(-180) scale(75.2758 159.096)">
<stop offset="0.29" stop-color="#4EB43B"/>
<stop offset="1" stop-color="#72CC61" stop-opacity="0"/>
</radialGradient>
<linearGradient id="paint6_linear_4_6" x1="131.416" y1="144" x2="63.7151" y2="144" gradientUnits="userSpaceOnUse">
<stop offset="0.18" stop-color="#C0E075" stop-opacity="0"/>
<stop offset="1" stop-color="#D1EB95"/>
</linearGradient>
<radialGradient id="paint7_radial_4_6" cx="0" cy="0" r="1" gradientTransform="matrix(-141.102 -114.024 113.866 -140.52 333.053 185.419)" gradientUnits="userSpaceOnUse">
<stop offset="0.44" stop-color="#79E96D"/>
<stop offset="1" stop-color="#D0EB76"/>
</radialGradient>
<radialGradient id="paint8_radial_4_6" cx="0" cy="0" r="1" gradientTransform="matrix(133.46 133.324 380.157 -379.504 31.2422 216.7)" gradientUnits="userSpaceOnUse">
<stop stop-color="#20A85E"/>
<stop offset="0.94" stop-color="#09442A"/>
</radialGradient>
<radialGradient id="paint9_radial_4_6" cx="0" cy="0" r="1" gradientUnits="userSpaceOnUse" gradientTransform="translate(90.2661 290.674) rotate(90) scale(93.3408 107.656)">
<stop offset="0.58" stop-color="#33A662" stop-opacity="0"/>
<stop offset="0.97" stop-color="#98F0B0"/>
</radialGradient>
<radialGradient id="paint10_radial_4_6" cx="0" cy="0" r="1" gradientUnits="userSpaceOnUse" gradientTransform="translate(431.763 442.694) scale(396.909 167.93)">
<stop offset="0.18" stop-color="#1657F4"/>
<stop offset="0.57" stop-color="#0036C4"/>
</radialGradient>
<linearGradient id="paint11_linear_4_6" x1="187.715" y1="301.334" x2="379.39" y2="301.334" gradientUnits="userSpaceOnUse">
<stop stop-color="#66C0FF"/>
<stop offset="0.26" stop-color="#0094F0"/>
</linearGradient>
<radialGradient id="paint12_radial_4_6" cx="0" cy="0" r="1" gradientTransform="matrix(-168.786 177.371 437.443 415.129 442.705 210.506)" gradientUnits="userSpaceOnUse">
<stop offset="0.14" stop-color="#D471FF"/>
<stop offset="0.83" stop-color="#509DF5" stop-opacity="0"/>
</radialGradient>
<radialGradient id="paint13_radial_4_6" cx="0" cy="0" r="1" gradientUnits="userSpaceOnUse" gradientTransform="translate(399.507 334.742) rotate(90) scale(155.179 848.063)">
<stop offset="0.28" stop-color="#4F006F" stop-opacity="0"/>
<stop offset="1" stop-color="#4F006F"/>
</radialGradient>
<linearGradient id="paint14_linear_4_6" x1="187.745" y1="216.176" x2="437.964" y2="220.315" gradientUnits="userSpaceOnUse">
<stop stop-color="#9DEAFF"/>
<stop offset="0.2" stop-color="#3BD5FF"/>
</linearGradient>
<radialGradient id="paint15_radial_4_6" cx="0" cy="0" r="1" gradientTransform="matrix(-239.653 55.9129 134.117 573.276 442.853 144.89)" gradientUnits="userSpaceOnUse">
<stop offset="0.06" stop-color="#E4A7FE"/>
<stop offset="0.54" stop-color="#E4A7FE" stop-opacity="0"/>
</radialGradient>
<radialGradient id="paint16_radial_4_6" cx="0" cy="0" r="1" gradientTransform="matrix(133.46 133.324 133.506 -133.277 148.351 289.476)" gradientUnits="userSpaceOnUse">
<stop offset="0.08" stop-color="#367AF2"/>
<stop offset="0.87" stop-color="#001A8F"/>
</radialGradient>
<radialGradient id="paint17_radial_4_6" cx="0" cy="0" r="1" gradientUnits="userSpaceOnUse" gradientTransform="translate(211.636 364.674) rotate(90) scale(93.3408 106.488)">
<stop offset="0.59" stop-color="#2763E5" stop-opacity="0"/>
<stop offset="0.97" stop-color="#58AAFE"/>
</radialGradient>
<clipPath id="clip0_4_6">
<rect width="292" height="300" fill="white" transform="translate(22 69)"/>
</clipPath>
<clipPath id="clip1_4_6">
<rect width="292" height="300" fill="white" transform="translate(146 143)"/>
</clipPath>
</defs>
</svg>
